<svg width="60" height="60" viewBox="0 0 60 60" fill="none" xmlns="http://www.w3.org/2000/svg">
<path d="M12.6562 22.3828C12.6562 22.0409 12.5204 21.7131 12.2787 21.4713C12.0369 21.2296 11.7091 21.0938 11.3672 21.0938H6.91406C6.74478 21.0938 6.57716 21.1271 6.42076 21.1919C6.26436 21.2567 6.12226 21.3516 6.00256 21.4713C5.88286 21.591 5.78791 21.7331 5.72312 21.8895C5.65834 22.0459 5.625 22.2135 5.625 22.3828V26.8359C5.625 27.0052 5.65834 27.1728 5.72312 27.3292C5.78791 27.4856 5.88286 27.6277 6.00256 27.7474C6.12226 27.8671 6.26436 27.9621 6.42076 28.0269C6.57716 28.0917 6.74478 28.125 6.91406 28.125H11.3672C11.7091 28.125 12.0369 27.9892 12.2787 27.7474C12.5204 27.5057 12.6562 27.1778 12.6562 26.8359V22.3828ZM7.26562 22.7344H11.0156V26.4844H7.26562V22.7344Z" fill="#21A0DA"/>
<path d="M21.5625 22.3828C21.5625 22.0409 21.4267 21.7131 21.1849 21.4713C20.9432 21.2296 20.6153 21.0938 20.2734 21.0938H15.8203C15.4784 21.0938 15.1506 21.2296 14.9088 21.4713C14.6671 21.7131 14.5312 22.0409 14.5312 22.3828V26.8359C14.5312 27.1778 14.6671 27.5057 14.9088 27.7474C15.1506 27.9892 15.4784 28.125 15.8203 28.125H20.2734C20.6153 28.125 20.9432 27.9892 21.1849 27.7474C21.4267 27.5057 21.5625 27.1778 21.5625 26.8359V22.3828ZM16.1719 22.7344H19.9219V26.4844H16.1719V22.7344Z" fill="#21A0DA"/>
<path d="M30.5859 22.3828C30.5859 22.0409 30.4501 21.7131 30.2084 21.4713C29.9666 21.2296 29.6388 21.0938 29.2969 21.0938H24.8438C24.5019 21.0938 24.174 21.2296 23.9322 21.4713C23.6905 21.7131 23.5547 22.0409 23.5547 22.3828V26.8359C23.5547 27.1778 23.6905 27.5057 23.9322 27.7474C24.174 27.9892 24.5019 28.125 24.8438 28.125H29.2969C29.6388 28.125 29.9666 27.9892 30.2084 27.7474C30.4501 27.5057 30.5859 27.1778 30.5859 26.8359V22.3828ZM25.1953 22.7344H28.9453V26.4844H25.1953V22.7344Z" fill="#21A0DA"/>
<path d="M39.4922 22.3828C39.4922 22.0409 39.3564 21.7131 39.1146 21.4713C38.8729 21.2296 38.545 21.0938 38.2031 21.0938H33.75C33.4081 21.0938 33.0802 21.2296 32.8385 21.4713C32.5967 21.7131 32.4609 22.0409 32.4609 22.3828V26.8359C32.4609 27.1778 32.5967 27.5057 32.8385 27.7474C33.0802 27.9892 33.4081 28.125 33.75 28.125H38.2031C38.545 28.125 38.8729 27.9892 39.1146 27.7474C39.3564 27.5057 39.4922 27.1778 39.4922 26.8359V22.3828ZM34.1016 22.7344H37.8516V26.4844H34.1016V22.7344Z" fill="#21A0DA"/>
<path d="M48.5156 22.3828C48.5156 22.0409 48.3798 21.7131 48.1381 21.4713C47.8963 21.2296 47.5684 21.0938 47.2266 21.0938H42.7734C42.4316 21.0938 42.1037 21.2296 41.8619 21.4713C41.6202 21.7131 41.4844 22.0409 41.4844 22.3828V26.8359C41.4844 27.1778 41.6202 27.5057 41.8619 27.7474C42.1037 27.9892 42.4316 28.125 42.7734 28.125H47.2266C47.5684 28.125 47.8963 27.9892 48.1381 27.7474C48.3798 27.5057 48.5156 27.1778 48.5156 26.8359V22.3828ZM43.125 22.7344H46.875V26.4844H43.125V22.7344Z" fill="#21A0DA"/>
<path d="M12.7734 32.3438C12.7734 32.0019 12.6376 31.674 12.3959 31.4322C12.1541 31.1905 11.8263 31.0547 11.4844 31.0547H7.03125C6.68937 31.0547 6.36149 31.1905 6.11975 31.4322C5.878 31.674 5.74219 32.0019 5.74219 32.3438V36.7969C5.74219 37.1388 5.878 37.4666 6.11975 37.7084C6.36149 37.9501 6.68937 38.0859 7.03125 38.0859H11.4844C11.8263 38.0859 12.1541 37.9501 12.3959 37.7084C12.6376 37.4666 12.7734 37.1388 12.7734 36.7969V32.3438ZM11.1328 36.4453H7.38281V32.6953H11.1328V36.4453Z" fill="#21A0DA"/>
<path d="M21.6797 32.3438C21.6797 32.1745 21.6463 32.0068 21.5816 31.8504C21.5168 31.6941 21.4218 31.5519 21.3021 31.4322C21.1824 31.3125 21.0403 31.2176 20.8839 31.1528C20.7275 31.088 20.5599 31.0547 20.3906 31.0547H15.9375C15.5956 31.0547 15.2677 31.1905 15.026 31.4322C14.7842 31.674 14.6484 32.0019 14.6484 32.3438V36.7969C14.6484 37.1388 14.7842 37.4666 15.026 37.7084C15.2677 37.9501 15.5956 38.0859 15.9375 38.0859H20.3906C20.5599 38.0859 20.7275 38.0526 20.8839 37.9878C21.0403 37.923 21.1824 37.8281 21.3021 37.7084C21.4218 37.5887 21.5168 37.4466 21.5816 37.2902C21.6463 37.1338 21.6797 36.9662 21.6797 36.7969V32.3438ZM20.0391 36.4453H16.2891V32.6953H20.0391V36.4453Z" fill="#21A0DA"/>
<path d="M30.7031 32.3438C30.7031 32.0019 30.5673 31.674 30.3256 31.4322C30.0838 31.1905 29.7559 31.0547 29.4141 31.0547H24.9609C24.6191 31.0547 24.2912 31.1905 24.0494 31.4322C23.8077 31.674 23.6719 32.0019 23.6719 32.3438V36.7969C23.6719 37.1388 23.8077 37.4666 24.0494 37.7084C24.2912 37.9501 24.6191 38.0859 24.9609 38.0859H29.4141C29.7559 38.0859 30.0838 37.9501 30.3256 37.7084C30.5673 37.4666 30.7031 37.1388 30.7031 36.7969V32.3438ZM29.0625 36.4453H25.3125V32.6953H29.0625V36.4453Z" fill="#21A0DA"/>
<path d="M12.7734 41.6016C12.7734 41.2597 12.6376 40.9318 12.3959 40.6901C12.1541 40.4483 11.8263 40.3125 11.4844 40.3125H7.03125C6.68937 40.3125 6.36149 40.4483 6.11975 40.6901C5.878 40.9318 5.74219 41.2597 5.74219 41.6016V46.1719C5.74219 46.5138 5.878 46.8416 6.11975 47.0834C6.36149 47.3251 6.68937 47.4609 7.03125 47.4609H11.4844C11.8263 47.4609 12.1541 47.3251 12.3959 47.0834C12.6376 46.8416 12.7734 46.5138 12.7734 46.1719V41.6016ZM11.1328 45.8203H7.38281V41.9531H11.1328V45.8203Z" fill="#21A0DA"/>
<path d="M21.6797 41.6016C21.6797 41.4323 21.6463 41.2647 21.5816 41.1083C21.5168 40.9519 21.4218 40.8098 21.3021 40.6901C21.1824 40.5704 21.0403 40.4754 20.8839 40.4106C20.7275 40.3458 20.5599 40.3125 20.3906 40.3125H15.9375C15.5956 40.3125 15.2677 40.4483 15.026 40.6901C14.7842 40.9318 14.6484 41.2597 14.6484 41.6016V46.1719C14.6484 46.5138 14.7842 46.8416 15.026 47.0834C15.2677 47.3251 15.5956 47.4609 15.9375 47.4609H20.3906C20.5599 47.4609 20.7275 47.4276 20.8839 47.3628C21.0403 47.298 21.1824 47.2031 21.3021 47.0834C21.4218 46.9637 21.5168 46.8216 21.5816 46.6652C21.6463 46.5088 21.6797 46.3412 21.6797 46.1719V41.6016ZM20.0391 45.8203H16.2891V41.9531H20.0391V45.8203Z" fill="#21A0DA"/>
<path d="M52.0312 33.1539V13.7906C52.0312 10.9948 49.9166 8.78906 47.1936 8.78906H45.4688V6.44918C45.4726 5.67586 45.1695 4.9326 44.6259 4.38259C44.0823 3.83258 43.3426 3.52077 42.5693 3.51562H42.0771C41.2999 3.51926 40.5556 3.8294 40.0057 4.37868C39.4559 4.92796 39.145 5.672 39.1406 6.44918V8.78906H15V6.44918C15.0039 5.67585 14.7007 4.93259 14.1571 4.38258C13.6134 3.83257 12.8738 3.52077 12.1004 3.51562H11.6082C10.8311 3.51929 10.0868 3.82944 9.53695 4.37872C8.98715 4.928 8.67628 5.67203 8.67188 6.44918V8.78906H7.34074C4.515 8.78906 2.10938 11.0879 2.10938 13.7906V46.3022C2.10938 49.035 4.515 51.3281 7.34074 51.3281H35.0408C36.2082 52.9278 37.7388 54.2273 39.5067 55.1197C41.2746 56.012 43.2291 56.4717 45.2094 56.4609C47.9451 56.4615 50.6074 55.5753 52.7969 53.9351C54.9865 52.295 56.5853 49.9892 57.3538 47.3636C58.1223 44.7381 58.019 41.9341 57.0594 39.3722C56.0998 36.8103 54.3356 34.6285 52.0312 33.1539ZM43.8281 11.1445C43.8281 11.4833 43.6935 11.8082 43.454 12.0477C43.2145 12.2873 42.8896 12.4219 42.5508 12.4219H42.0586C41.7198 12.4219 41.3949 12.2873 41.1554 12.0477C40.9158 11.8082 40.7812 11.4833 40.7812 11.1445V6.43359C40.7812 6.09482 40.9158 5.76992 41.1554 5.53038C41.3949 5.29083 41.7198 5.15625 42.0586 5.15625H42.5508C42.8896 5.15625 43.2145 5.29083 43.454 5.53038C43.6935 5.76992 43.8281 6.09482 43.8281 6.43359V11.1445ZM13.3594 11.1445C13.3594 11.4833 13.2248 11.8082 12.9852 12.0477C12.7457 12.2873 12.4208 12.4219 12.082 12.4219H11.5898C11.2511 12.4219 10.9262 12.2873 10.6866 12.0477C10.4471 11.8082 10.3125 11.4833 10.3125 11.1445V6.43359C10.3125 6.09482 10.4471 5.76992 10.6866 5.53038C10.9262 5.29083 11.2511 5.15625 11.5898 5.15625H12.082C12.4208 5.15625 12.7457 5.29083 12.9852 5.53038C13.2248 5.76992 13.3594 6.09482 13.3594 6.43359V11.1445ZM3.75 13.7906C3.75 12.0086 5.4375 10.4297 7.34074 10.4297H8.67188V11.1602C8.67751 11.9341 8.98974 12.6742 9.54012 13.2182C10.0905 13.7622 10.8341 14.0658 11.608 14.0625H12.1002C12.4815 14.0635 12.8592 13.9891 13.2116 13.8435C13.5641 13.698 13.8842 13.4842 14.1537 13.2145C14.4232 12.9448 14.6368 12.6244 14.782 12.2719C14.9272 11.9193 15.0013 11.5415 15 11.1602V10.4297H39.1406V11.1602C39.1463 11.9341 39.4585 12.6742 40.0089 13.2182C40.5593 13.7622 41.3029 14.0658 42.0768 14.0625H42.5689C42.9502 14.0635 43.328 13.9891 43.6804 13.8436C44.0328 13.6981 44.353 13.4843 44.6225 13.2145C44.892 12.9448 45.1055 12.6244 45.2508 12.2719C45.396 11.9193 45.4701 11.5415 45.4688 11.1602V10.4297H47.1936C48.9961 10.4297 50.3906 11.9147 50.3906 13.7906V17.1094H3.75V13.7906ZM7.34074 49.6875C5.4375 49.6875 3.75 48.1139 3.75 46.3022V18.75H50.3906V32.2603C48.759 31.5153 46.9848 31.134 45.1911 31.1429C43.189 31.1429 41.3672 31.6107 39.6094 32.4417V32.3597C39.6136 32.0182 39.4822 31.689 39.2439 31.4443C39.0057 31.1996 38.6801 31.0595 38.3386 31.0547H33.8855C33.5402 31.0579 33.21 31.1963 32.9656 31.4402C32.7212 31.6841 32.5821 32.0141 32.5781 32.3593V36.8125C32.5833 37.1545 32.7238 37.4805 32.9688 37.7192C33.2138 37.9579 33.5434 38.0898 33.8855 38.0859H33.9062C33.015 39.8556 32.5495 41.809 32.5468 43.7904C32.5439 45.8459 33.0451 47.8707 34.0064 49.6875H7.34074ZM34.9001 36.4453H34.2188V32.6953H37.9688V33.4107C36.7875 34.2485 35.7509 35.2735 34.9001 36.4453ZM45.2094 54.8282C43.0294 54.8282 40.8983 54.1817 39.0857 52.9706C37.2731 51.7594 35.8604 50.038 35.0261 48.0239C34.1919 46.0098 33.9736 43.7936 34.3989 41.6555C34.8242 39.5173 35.874 37.5534 37.4155 36.0119C38.957 34.4704 40.921 33.4206 43.0591 32.9953C45.1973 32.57 47.4135 32.7883 49.4275 33.6226C51.4416 34.4569 53.163 35.8697 54.3742 37.6823C55.5853 39.4949 56.2317 41.626 56.2317 43.806C56.2284 46.7282 55.066 49.5298 52.9997 51.5962C50.9333 53.6625 48.1317 54.8248 45.2094 54.8282Z" fill="#21A0DA"/>
<path d="M45.1172 34C44.8997 34 44.691 34.0864 44.5372 34.2403C44.3834 34.3941 44.2969 34.6028 44.2969 34.8203V43.3477L39.0199 46.6035C38.9281 46.6605 38.8485 46.7351 38.7856 46.8228C38.7227 46.9106 38.6777 47.0099 38.6531 47.1151C38.6286 47.2203 38.625 47.3293 38.6426 47.4358C38.6601 47.5424 38.6985 47.6445 38.7555 47.7362C38.8126 47.8279 38.8871 47.9075 38.9749 47.9704C39.0626 48.0334 39.162 48.0784 39.2671 48.1029C39.3723 48.1275 39.4813 48.1311 39.5879 48.1135C39.6944 48.0959 39.7965 48.0575 39.8882 48.0005L45.556 44.5043C45.6742 44.4304 45.7713 44.3274 45.8382 44.205C45.905 44.0827 45.9392 43.9453 45.9376 43.8059V34.8203C45.9376 34.6028 45.8511 34.3941 45.6973 34.2403C45.5434 34.0864 45.3348 34 45.1172 34Z" fill="#21A0DA"/>
</svg>
