<svg width="26" height="26" viewBox="0 0 26 26" fill="none" xmlns="http://www.w3.org/2000/svg">
<g clip-path="url(#clip0)">
<path d="M23.7149 3.09766H2.28522C1.93346 3.09766 1.60415 3.18414 1.30621 3.32668L12.9493 14.9698L15.5589 12.4618C15.5589 12.4618 15.5591 12.4616 15.5591 12.4615C15.5592 12.4614 15.5594 12.4613 15.5594 12.4613L24.6943 3.32688C24.3963 3.18424 24.0668 3.09766 23.7149 3.09766Z" fill="#21A0DA"/>
<path d="M25.7714 4.4043L17.175 13.0002L25.7711 21.5963C25.9136 21.2984 26.0001 20.9691 26.0001 20.6173V5.38295C26.0001 5.03139 25.9138 4.70213 25.7714 4.4043Z" fill="#21A0DA"/>
<path d="M0.229023 4.4043C0.0864805 4.70223 0 5.03155 0 5.38331V20.6177C0 20.9692 0.0863789 21.2986 0.22882 21.5964L8.82522 13.0005L0.229023 4.4043Z" fill="#21A0DA"/>
<path d="M16.0979 14.0773L13.4879 16.5855C13.3391 16.7343 13.1442 16.8087 12.9494 16.8087C12.7545 16.8087 12.5596 16.7343 12.4109 16.5855L9.90246 14.0771L1.30591 22.6731C1.60389 22.8158 1.93341 22.9024 2.28528 22.9024H23.715C24.0667 22.9024 24.396 22.8159 24.694 22.6733L16.0979 14.0773Z" fill="#21A0DA"/>
</g>
<defs>
<clipPath id="clip0">
<rect width="26" height="26" fill="white"/>
</clipPath>
</defs>
</svg>
