<svg width="60" height="60" viewBox="0 0 60 60" fill="none" xmlns="http://www.w3.org/2000/svg">
<path d="M4.00006 44H12.0001V58H4.00006V44Z" fill="#21A0DA" fill-opacity="0.5"/>
<path d="M26.0001 30H34.0001V58H26.0001V30Z" fill="#21A0DA" fill-opacity="0.5"/>
<path d="M48 14H56V58H48V14Z" fill="#21A0DA" fill-opacity="0.5"/>
<path d="M24.0001 20C28.4183 20 32.0001 16.4183 32.0001 12C32.0001 7.58172 28.4183 4 24.0001 4C19.5818 4 16.0001 7.58172 16.0001 12C16.0001 16.4183 19.5818 20 24.0001 20Z" fill="#21A0DA" fill-opacity="0.5"/>
<path d="M57 57V13H47V57H46V29H36V57H35V29H25V57H24V35H14V57H13V43H3V57H0V59H60V57H57ZM5 57V45H11V57H5ZM16 57V37H22V57H16ZM27 57V31H33V57H27ZM38 57V31H44V57H38ZM49 57V15H55V57H49Z" fill="#21A0DA"/>
<path d="M16.4138 27H30.4138L49.9998 7.414V11H51.9998V4H44.9998V6H48.5858L29.5858 25H15.5858L0.292786 40.293L1.70679 41.707L16.4138 27Z" fill="#21A0DA"/>
<path d="M24.0002 15C23.4877 14.9585 23.1037 14.513 23.1382 14H21.1382C21.1263 15.2268 21.8643 16.3365 23.0002 16.8V18H25.0002V16.8C26.136 16.3365 26.874 15.2268 26.8622 14C26.8974 12.3824 25.6177 11.0409 24.0002 11C23.4479 11.0823 22.9335 10.7013 22.8512 10.149C22.7689 9.59675 23.1499 9.08238 23.7022 9C24.2544 8.91775 24.7688 9.29875 24.8512 9.851C24.8585 9.90038 24.8622 9.95013 24.8622 10H26.8622C26.874 8.77325 26.136 7.6635 25.0002 7.2V6H23.0002V7.2C21.8643 7.6635 21.1263 8.77325 21.1382 10C21.1029 11.6176 22.3827 12.9591 24.0002 13C24.5524 13.0821 24.9335 13.5965 24.8514 14.1488C24.7859 14.5889 24.4403 14.9345 24.0002 15Z" fill="#21A0DA"/>
<path d="M24 21C28.9705 21 33 16.9705 33 12C33 7.0295 28.9705 3 24 3C19.0295 3 15 7.02937 15 12C15.006 16.968 19.032 20.994 24 21ZM24 5C27.866 5 31 8.134 31 12C31 15.866 27.866 19 24 19C20.134 19 17 15.866 17 12C17.0044 8.13587 20.1359 5.00437 24 5Z" fill="#21A0DA"/>
<path d="M28.0001 11H30.0001V13H28.0001V11Z" fill="#21A0DA"/>
<path d="M18 11H20V13H18V11Z" fill="#21A0DA"/>
<path d="M4.00006 1H6.00006V3H4.00006V1Z" fill="#21A0DA"/>
<path d="M8 1H16V3H8V1Z" fill="#21A0DA"/>
<path d="M4.00006 5H12.0001V7H4.00006V5Z" fill="#21A0DA"/>
</svg>
