<svg width="60" height="60" viewBox="0 0 60 60" fill="none" xmlns="http://www.w3.org/2000/svg">
<path d="M23.9855 18.164C23.962 18.1523 23.9582 18.1426 23.933 18.1339L21.6797 17.3542V16.6965C21.6776 16.5697 21.6417 16.4458 21.5758 16.3375C21.5099 16.2293 21.4163 16.1405 21.3047 16.0804C21.2777 16.0655 21.2109 16.0529 21.2109 16.0419L21.1975 16.0406H21.1637L19.6875 15.4751V15.3966C21.3281 14.5702 22.3388 13.0131 22.5084 11.1896C22.8772 10.9914 23.1708 10.6778 23.3443 10.2968C23.5179 9.91584 23.5618 9.48851 23.4694 9.08021C23.4206 8.87391 23.3306 8.67961 23.2048 8.50902C23.079 8.33844 22.9199 8.19509 22.7372 8.08763L22.812 7.02837C22.8649 6.26222 22.7596 5.49336 22.5028 4.7696C22.2459 4.04584 21.843 3.38263 21.319 2.8212C20.795 2.25976 20.1611 1.81209 19.4567 1.50602C18.7524 1.19994 17.9926 1.04199 17.2246 1.04199C16.4566 1.04199 15.6969 1.19994 14.9925 1.50602C14.2882 1.81209 13.6543 2.25976 13.1303 2.8212C12.6063 3.38263 12.2033 4.04584 11.9465 4.7696C11.6896 5.49336 11.5844 6.26222 11.6373 7.02837L11.7108 8.08587C11.5269 8.1931 11.3666 8.33651 11.2397 8.50744C11.1128 8.67837 11.0219 8.87326 10.9725 9.08033C10.8726 9.48798 10.912 9.91736 11.0846 10.3C11.2571 10.6826 11.5528 10.9964 11.9245 11.1913C12.0021 12.0555 12.2911 12.8872 12.7662 13.6132C13.2412 14.3392 13.8877 14.937 14.6484 15.3541V15.5111L13.2983 16.0359L13.2956 16.0409C13.2737 16.0524 13.2527 16.0656 13.2328 16.0804C13.1252 16.1423 13.0365 16.2324 12.9762 16.3409C12.9159 16.4495 12.8863 16.5724 12.8906 16.6965V17.3541L10.5918 18.1343C10.5626 18.1429 10.5339 18.153 10.5057 18.1645C9.91154 18.4405 9.39918 18.8661 9.01877 19.3996C8.63837 19.933 8.40295 20.5561 8.33555 21.2078C8.33379 21.2282 8.32031 21.2487 8.32031 21.2692V35.1537C8.32031 36.5157 9.47602 37.6237 10.8887 37.6237C11.1144 37.6233 11.3392 37.5945 11.5577 37.5378L12.1721 56.867C12.1721 56.8837 12.1747 56.8939 12.1764 56.9105C12.2299 57.4671 12.4887 57.9838 12.9023 58.3599C13.316 58.7361 13.8549 58.9448 14.4141 58.9452H20.1589C20.718 58.9446 21.2568 58.7359 21.6704 58.3598C22.0839 57.9836 22.3427 57.467 22.3962 56.9105C22.3979 56.8939 22.3991 56.8805 22.3996 56.8636L23.012 37.5585C23.1976 37.6006 23.3872 37.6221 23.5774 37.6229C24.9901 37.6229 26.1328 36.5157 26.1328 35.1537V21.2695C26.1328 21.249 26.1384 21.2285 26.1367 21.2081C26.0734 20.5575 25.8417 19.9347 25.4645 19.4009C25.0873 18.8672 24.5775 18.4409 23.9855 18.164ZM24.7266 21.3022V32.8124H23.1615L23.5767 19.5256C23.887 19.7192 24.1508 19.9788 24.3495 20.2858C24.5483 20.5928 24.677 20.9398 24.7266 21.3022ZM12.8372 33.3984L12.8187 32.8124H21.7552L21.7365 33.3984H12.8372ZM12.774 31.4062L12.3804 18.9919L13.2954 18.6817L14.8405 20.6417C14.9481 20.7785 15.1025 20.8705 15.274 20.9C15.4455 20.9295 15.6218 20.8944 15.7689 20.8014L15.925 20.7027L15.3046 27.5617C15.2902 27.7204 15.3301 27.8793 15.4178 28.0123L16.7036 29.9616C16.7676 30.0588 16.8548 30.1385 16.9572 30.1936C17.0597 30.2488 17.1742 30.2777 17.2905 30.2777C17.4069 30.2777 17.5214 30.2488 17.6239 30.1936C17.7263 30.1385 17.8135 30.0588 17.8775 29.9616L19.1631 28.0123C19.2507 27.8793 19.2907 27.7205 19.2764 27.5619L18.6623 20.7715L18.7103 20.8019C18.8572 20.895 19.0334 20.9303 19.2049 20.9011C19.3764 20.8718 19.5309 20.78 19.6386 20.6435L21.1838 18.6854L22.1924 19.0242L21.7997 31.4062H12.774ZM15.9264 19.0374L15.5521 19.2747L14.8034 18.3255L15.9264 19.0374ZM17.8542 27.4435L17.291 28.2974L16.7277 27.4435L17.291 21.2151L17.8542 27.4435ZM19.6765 18.3263L18.928 19.2755L18.5536 19.0382L19.6765 18.3263ZM18.2812 17.51L17.2214 18.2049L16.0547 17.4422V15.8954C16.4322 15.9868 16.8195 16.0322 17.2079 16.0305C17.5689 16.0308 17.9288 15.9915 18.2812 15.9133V17.51ZM14.1593 3.78064C14.6896 3.21352 15.3669 2.80456 16.1157 2.5992C16.8645 2.39385 17.6556 2.40015 18.401 2.61741C19.1465 2.83466 19.8171 3.25435 20.3383 3.82985C20.8596 4.40535 21.211 5.11411 21.3537 5.87736C21.1494 5.44233 20.8304 5.07124 20.431 4.804C20.0316 4.53676 19.5668 4.38351 19.0868 4.36072L18.6347 4.3408C18.5175 4.33619 18.4009 4.36072 18.2955 4.41219C18.1901 4.46367 18.0991 4.54048 18.0307 4.63576C17.6419 5.18166 17.1148 5.6143 16.5036 5.88928C15.8924 6.16427 15.219 6.2717 14.5526 6.20056L13.7924 6.11853C13.6738 6.1061 13.5539 6.11739 13.4397 6.15173C13.3255 6.18607 13.2193 6.24279 13.1272 6.31857C13.095 6.34522 13.0647 6.37421 13.0366 6.40529C13.0884 5.4251 13.4862 4.49505 14.1593 3.78064ZM13.2988 10.69C13.2988 10.5246 13.2405 10.3645 13.1341 10.2378C13.0277 10.1111 12.88 10.026 12.7171 9.99744C12.6069 9.97817 12.507 9.92055 12.4352 9.83477C12.3633 9.74899 12.3241 9.64057 12.3245 9.52869C12.3248 9.50177 12.3272 9.47493 12.3319 9.44841C12.3511 9.45814 12.3704 9.46705 12.3905 9.4749C13.0716 9.74794 13.3818 9.83818 13.7109 9.63474C13.8054 9.57545 13.8847 9.49506 13.9428 9.39989C14.0009 9.30473 14.0362 9.19739 14.0457 9.0863L14.1667 7.57318L14.4026 7.59861C15.2513 7.68918 16.1093 7.56889 16.9004 7.24842C17.6915 6.92794 18.3913 6.41719 18.9377 5.76146L19.0253 5.76533C19.2466 5.77584 19.461 5.84602 19.6457 5.96844C19.8304 6.09086 19.9785 6.26096 20.0745 6.46072L20.783 9.38127C20.8119 9.5006 20.8716 9.61027 20.9561 9.69937C21.0406 9.78847 21.147 9.85389 21.2646 9.88911C21.3822 9.92434 21.507 9.92814 21.6266 9.90015C21.7461 9.87215 21.8563 9.81333 21.9461 9.72955L22.1218 9.56548C22.1143 9.67025 22.0721 9.76952 22.0018 9.84761C21.9316 9.9257 21.8373 9.97818 21.7339 9.99673C21.5707 10.0272 21.4232 10.1138 21.3172 10.2416C21.2111 10.3695 21.1532 10.5304 21.1534 10.6965C21.1557 11.2139 21.0558 11.7268 20.8592 12.2055C20.6627 12.6842 20.3735 13.1194 20.0083 13.486C19.643 13.8526 19.2089 14.1434 18.7309 14.3416C18.2529 14.5399 17.7404 14.6417 17.2229 14.6412C16.7054 14.6408 16.1931 14.5381 15.7155 14.339C15.2378 14.1399 14.8042 13.8483 14.4396 13.4811C14.075 13.1139 13.7866 12.6782 13.5909 12.1991C13.3952 11.72 13.2961 11.207 13.2994 10.6895L13.2988 10.69ZM10.9823 19.4736L11.4123 32.8124H9.72656V21.3022C9.78043 20.9211 9.92184 20.5577 10.1397 20.2404C10.3576 19.9231 10.646 19.6607 10.9823 19.4736ZM10.8886 36.2174C10.2514 36.2174 9.72656 35.7402 9.72656 35.1537V34.2187H11.457L11.5105 36.0326C11.3231 36.148 11.1086 36.2117 10.8886 36.2174ZM13.5784 56.7801L12.8818 34.8046H16.6406V57.539H14.4141C14.2062 57.5361 14.0065 57.4574 13.8526 57.3177C13.6987 57.1779 13.6012 56.9867 13.5784 56.7801ZM20.1593 57.539H18.0469V34.8046H21.6914L20.9953 56.7801C20.9725 56.9868 20.8749 57.178 20.7209 57.3178C20.567 57.4576 20.3672 57.5362 20.1593 57.539ZM23.5774 36.2174C23.3954 36.2111 23.217 36.1646 23.0551 36.0811L23.1169 34.2187H24.7266V35.1537C24.7266 35.7402 24.2147 36.2174 23.5774 36.2174Z" fill="#21A0DA"/>
<path d="M51.5814 27.0837C51.5209 26.9728 51.4315 26.8804 51.3227 26.8161C51.214 26.7519 51.0899 26.7182 50.9636 26.7188H43.125V24.2707C43.1232 24.0818 43.0475 23.9012 42.9142 23.7674C42.7808 23.6336 42.6005 23.5572 42.4116 23.5547H31.2858C31.0983 23.5577 30.9197 23.6347 30.7886 23.7687C30.6576 23.9028 30.5847 24.0832 30.586 24.2707V58.2551C30.586 58.4416 30.66 58.6204 30.7919 58.7523C30.9238 58.8841 31.1026 58.9582 31.2891 58.9582C31.4756 58.9582 31.6544 58.8841 31.7863 58.7523C31.9181 58.6204 31.9922 58.4416 31.9922 58.2551V35.8594H36.5625V37.9985C36.5629 38.0892 36.5815 38.1789 36.6173 38.2622C36.653 38.3455 36.7051 38.4209 36.7705 38.4837C36.8359 38.5465 36.9132 38.5955 36.998 38.6278C37.0827 38.6602 37.173 38.6751 37.2636 38.6719H50.9636C51.089 38.6753 51.2129 38.6442 51.3218 38.582C51.4307 38.5198 51.5205 38.4289 51.5813 38.3193C51.6422 38.2096 51.6717 38.0853 51.6668 37.96C51.6619 37.8347 51.6227 37.7131 51.5535 37.6085L48.3697 32.7039L51.5535 27.7988C51.6223 27.6932 51.6612 27.571 51.6661 27.4451C51.671 27.3192 51.6418 27.1943 51.5814 27.0837ZM31.9922 24.9609H41.7188V34.4531H31.9922V24.9609ZM46.9417 32.3276C46.8679 32.4385 46.8285 32.5688 46.8285 32.7021C46.8285 32.8353 46.8679 32.9656 46.9417 33.0765L49.6695 37.2656H37.9688V35.8594H42.4116C42.6009 35.8558 42.7814 35.7785 42.9147 35.6438C43.0479 35.5092 43.1234 35.3279 43.125 35.1386V28.125H49.6694L46.9417 32.3276Z" fill="#21A0DA"/>
</svg>
