<svg width="24" height="24" viewBox="0 0 24 24" fill="none" xmlns="http://www.w3.org/2000/svg">
<g clip-path="url(#clip0)">
<path d="M23.9933 23.9992V23.9982H23.9993V15.1962C23.9993 10.8902 23.0723 7.57324 18.0383 7.57324C15.6183 7.57324 13.9943 8.90124 13.3313 10.1602H13.2613V7.97524H8.48828V23.9982H13.4583V16.0642C13.4583 13.9752 13.8543 11.9552 16.4413 11.9552C18.9903 11.9552 19.0283 14.3392 19.0283 16.1982V23.9992H23.9933Z" fill="#21A0DA"/>
<path d="M0.396484 7.97754H5.37249V24.0005H0.396484V7.97754Z" fill="#21A0DA"/>
<path d="M2.882 0C1.291 0 0 1.291 0 2.882C0 4.473 1.291 5.791 2.882 5.791C4.473 5.791 5.764 4.473 5.764 2.882C5.763 1.291 4.472 0 2.882 0V0Z" fill="#21A0DA"/>
</g>
<defs>
<clipPath id="clip0">
<rect width="24" height="24" fill="white"/>
</clipPath>
</defs>
</svg>
