<svg width="60" height="60" viewBox="0 0 60 60" fill="none" xmlns="http://www.w3.org/2000/svg">
<path d="M41.0548 37.222C38.2519 37.22 35.5568 38.3017 33.533 40.2408L31.2891 39.2899V35.1561H32.1749C32.6777 35.1624 33.1661 34.9886 33.552 34.6663C33.9379 34.3439 34.1958 33.8941 34.2791 33.3983H35.6565C36.1284 33.402 36.5963 33.3123 37.0333 33.1342C37.4703 32.9561 37.8677 32.6932 38.2026 32.3607C38.5374 32.0282 38.803 31.6326 38.9842 31.1969C39.1653 30.7611 39.2583 30.2938 39.2578 29.8219V29.0623H39.6136C40.4516 29.0544 41.2529 28.717 41.8442 28.123C42.4355 27.5291 42.7693 26.7263 42.7734 25.8882V25.0779H43.505C43.7226 25.0779 43.9312 24.9915 44.0851 24.8377C44.2389 24.6838 44.3253 24.4752 44.3253 24.2576C44.3253 24.0401 44.2389 23.8314 44.0851 23.6776C43.9312 23.5237 43.7226 23.4373 43.505 23.4373H42.7734V22.7954C42.7734 21.2629 41.6016 19.9842 40.1953 19.7104V18.1303C40.1916 17.4054 39.9482 16.702 39.5031 16.1299C39.0579 15.5577 38.4361 15.1489 37.7344 14.967V13.9217C37.7344 6.82928 31.9949 1.05908 24.9023 1.05908C17.8098 1.05908 12.0703 6.82928 12.0703 13.9217V17.8663C11.569 18.0217 11.1176 18.3066 10.7615 18.6921C10.4054 19.0777 10.1573 19.5503 10.0423 20.0623C9.80334 20.9793 9.91617 21.9525 10.3586 22.7905C10.801 23.6285 11.5409 24.2707 12.4329 24.5907C12.5378 26.7563 13.1948 28.8591 14.3415 30.6992C15.4882 32.5393 17.0865 34.0555 18.9844 35.1038V39.2899L12.0703 42.2395C12.0552 42.2459 12.0388 42.2528 12.024 42.2602C10.9272 42.813 9.99001 43.6371 9.30135 44.6541C8.61269 45.671 8.19547 46.8472 8.08933 48.0708C8.08745 48.0935 8.08569 48.1163 8.08569 48.139V54.6209C8.08587 54.728 8.1073 54.8341 8.14873 54.9329C8.19016 55.0316 8.25078 55.1212 8.32707 55.1964C8.40336 55.2716 8.49381 55.331 8.59319 55.371C8.69256 55.411 8.79889 55.4309 8.90601 55.4295H33.0782C35.0635 57.5389 37.9044 58.9345 41.0548 58.9345C43.934 58.9345 46.6953 57.7907 48.7313 55.7547C50.7672 53.7188 51.911 50.9575 51.911 48.0782C51.911 45.199 50.7672 42.4376 48.7313 40.4017C46.6953 38.3658 43.934 37.222 41.0548 37.222ZM32.6953 33.1279C32.6953 33.2618 32.6421 33.3901 32.5475 33.4848C32.4528 33.5795 32.3244 33.6326 32.1906 33.6326H25.4657C25.3318 33.6326 25.2034 33.5795 25.1088 33.4848C25.0141 33.3901 24.9609 33.2618 24.9609 33.1279V32.2624C24.9609 32.1285 25.0141 32.0001 25.1088 31.9055C25.2034 31.8108 25.3318 31.7576 25.4657 31.7576H32.1906C32.3244 31.7576 32.4528 31.8108 32.5475 31.9055C32.6421 32.0001 32.6953 32.1285 32.6953 32.2624V33.1279ZM37.6172 29.8219C37.6179 30.0784 37.5675 30.3325 37.4689 30.5694C37.3703 30.8062 37.2255 31.021 37.043 31.2012C36.8605 31.3814 36.6438 31.5234 36.4058 31.619C36.1677 31.7145 35.913 31.7617 35.6565 31.7576H35.1526C35.848 30.9291 36.426 30.0088 36.8705 29.0227C36.8829 29.0227 36.8951 29.0623 36.9077 29.0623H37.6172V29.8219ZM25.9171 14.1596C26.9635 15.2729 30.2344 18.2288 36.0937 18.83V19.2526C33.8672 19.199 27.1399 18.7071 21.8108 14.9283L21.885 14.9187C23.2427 14.7449 24.5891 14.4914 25.9171 14.1596ZM41.1328 22.7954V25.8882C41.1292 26.2913 40.9684 26.6771 40.6846 26.9635C40.4009 27.2499 40.0167 27.4143 39.6136 27.4217H37.7344V21.3279H39.6136C39.8098 21.3243 40.0047 21.3593 40.1874 21.4311C40.37 21.5029 40.5366 21.61 40.6777 21.7464C40.8189 21.8827 40.9317 22.0455 41.0098 22.2255C41.0879 22.4055 41.1297 22.5992 41.1328 22.7954ZM38.5547 18.1303V19.6873H37.7344V16.7275C37.9794 16.8719 38.1834 17.0766 38.327 17.3222C38.4706 17.5677 38.549 17.8459 38.5547 18.1303ZM13.7109 13.9217C13.7109 7.7342 18.7148 2.69959 24.9023 2.69959C31.0898 2.69959 36.0937 7.7342 36.0937 13.9217V17.1778C31.7578 16.6901 29.0508 14.7871 27.7428 13.6332C29.9372 12.9132 31.8092 11.9665 33.3327 10.7984C33.4182 10.733 33.4899 10.6514 33.5439 10.5583C33.5978 10.4651 33.6329 10.3623 33.6471 10.2556C33.6613 10.1489 33.6543 10.0405 33.6266 9.93646C33.5989 9.83246 33.551 9.73493 33.4856 9.64945C33.4202 9.56397 33.3386 9.49221 33.2454 9.43827C33.1523 9.38433 33.0494 9.34925 32.9427 9.33506C32.836 9.32086 32.7276 9.32782 32.6236 9.35554C32.5196 9.38325 32.4221 9.43118 32.3366 9.49658C29.2236 11.884 24.8392 12.8762 21.7087 13.2881C19.6564 13.5619 17.5853 13.6692 15.5156 13.6088C15.2999 13.5983 15.0887 13.6731 14.9276 13.8171C14.7666 13.961 14.6686 14.1626 14.655 14.3781L14.3878 18.7642L13.7726 18.4361C13.752 18.4247 13.7352 18.4076 13.7242 18.3867C13.7132 18.3659 13.7086 18.3424 13.7108 18.3189L13.7109 13.9217ZM14.0625 23.9786V23.9606C14.0613 23.7669 13.9921 23.5797 13.8669 23.4319C13.7417 23.2841 13.5685 23.185 13.3776 23.152C13.0803 23.0989 12.7969 22.9857 12.5449 22.8191C12.293 22.6525 12.0778 22.4361 11.9125 22.1833C11.7472 21.9305 11.6355 21.6465 11.584 21.3489C11.5325 21.0512 11.5425 20.7462 11.6133 20.4526C11.6631 20.2318 11.7653 20.0264 11.9113 19.8535C12.0573 19.6806 12.2428 19.5455 12.4521 19.4595C12.6042 19.6393 12.7903 19.7874 12.9997 19.8953L14.4239 20.6268C14.5797 20.7069 14.7529 20.7472 14.9281 20.7442C15.1033 20.7413 15.275 20.6951 15.428 20.6098C15.5811 20.5245 15.7107 20.4028 15.8054 20.2553C15.9 20.1079 15.9569 19.9394 15.9708 19.7648C15.9708 19.7596 15.9716 19.7546 15.9718 19.7494L16.2449 15.2681C16.952 15.2746 18.0766 15.2621 19.4551 15.1639C23.1131 18.3009 27.608 19.6926 30.7663 20.3084C32.5225 20.6531 34.3046 20.8494 36.0937 20.8953V26.1998C35.7166 27.9123 34.9383 29.5108 33.8228 30.8638C33.6199 30.6259 33.367 30.4356 33.0822 30.3065C32.7973 30.1774 32.4876 30.1127 32.1749 30.117H25.4524C25.174 30.1122 24.8974 30.163 24.6389 30.2663C24.3803 30.3696 24.1449 30.5234 23.9464 30.7187C23.7479 30.9139 23.5903 31.1468 23.4828 31.4037C23.3753 31.6605 23.3201 31.9362 23.3203 32.2147V33.0233C23.321 33.4647 23.4577 33.8952 23.7119 34.2561C23.9661 34.617 24.3253 34.8908 24.7407 35.0402C21.8758 34.9355 19.1628 33.7247 17.1717 31.6621C15.1805 29.5995 14.0661 26.8456 14.0625 23.9787V23.9786ZM25.1068 36.6887C26.6601 36.6924 28.2004 36.4058 29.6484 35.8436V39.3316C28.2256 39.9537 26.6896 40.2748 25.1367 40.2748C23.5839 40.2748 22.0478 39.9537 20.625 39.3316V35.8654C22.0563 36.4106 23.5752 36.6897 25.1068 36.6888V36.6887ZM9.72655 53.7889V48.1743C9.81309 47.2411 10.1343 46.345 10.6604 45.5694C11.1864 44.7938 11.9001 44.1639 12.7351 43.7383L19.7546 40.7423C21.4481 41.5154 23.2879 41.9154 25.1495 41.9154C27.011 41.9154 28.8509 41.5154 30.5443 40.7423L32.3974 41.5332C31.0725 43.278 30.3087 45.384 30.207 47.5725C30.1053 49.761 30.6707 51.9288 31.8281 53.7889H9.72655ZM41.0548 57.2999C39.2314 57.2999 37.4491 56.7593 35.9331 55.7463C34.4171 54.7333 33.2355 53.2935 32.5378 51.609C31.84 49.9244 31.6575 48.0708 32.0133 46.2826C32.369 44.4943 33.2471 42.8517 34.5364 41.5625C35.8257 40.2732 37.4684 39.3953 39.2566 39.0397C41.0449 38.684 42.8985 38.8667 44.583 39.5645C46.2675 40.2623 47.7072 41.444 48.7201 42.9601C49.733 44.4762 50.2735 46.2585 50.2734 48.0819C50.2705 50.5258 49.2983 52.8689 47.5701 54.597C45.8419 56.3251 43.4988 57.2972 41.0548 57.2999Z" fill="#21A0DA"/>
<path d="M19.6875 20.8062C19.4699 20.8062 19.2613 20.8926 19.1075 21.0464C18.9536 21.2003 18.8672 21.4089 18.8672 21.6265V23.3833C18.8672 23.6009 18.9536 23.8095 19.1075 23.9634C19.2613 24.1172 19.4699 24.2037 19.6875 24.2037C19.9051 24.2037 20.1137 24.1172 20.2675 23.9634C20.4214 23.8095 20.5078 23.6009 20.5078 23.3833V21.6265C20.5078 21.4089 20.4214 21.2003 20.2675 21.0464C20.1137 20.8926 19.9051 20.8062 19.6875 20.8062Z" fill="#21A0DA"/>
<path d="M31.0547 24.2037C31.2722 24.2037 31.4809 24.1172 31.6347 23.9634C31.7886 23.8095 31.875 23.6009 31.875 23.3833V21.6265C31.875 21.4089 31.7886 21.2003 31.6347 21.0464C31.4809 20.8926 31.2722 20.8062 31.0547 20.8062C30.8371 20.8062 30.6285 20.8926 30.4746 21.0464C30.3208 21.2003 30.2344 21.4089 30.2344 21.6265V23.3833C30.2344 23.4911 30.2556 23.5977 30.2968 23.6973C30.338 23.7968 30.3985 23.8872 30.4746 23.9634C30.5508 24.0396 30.6412 24.1 30.7408 24.1412C30.8403 24.1824 30.947 24.2037 31.0547 24.2037Z" fill="#21A0DA"/>
<path d="M47.384 43.9645L41.4741 40.5577C41.3485 40.4857 41.2063 40.4478 41.0616 40.4478C40.9169 40.4478 40.7747 40.4857 40.6492 40.5577L34.7473 43.9645C34.6224 44.0364 34.5187 44.1399 34.4465 44.2646C34.3743 44.3893 34.3362 44.5308 34.3359 44.6749V51.4884C34.3357 51.6323 34.3734 51.7737 34.4452 51.8984C34.5171 52.0231 34.6205 52.1267 34.745 52.1988L40.6452 55.6055C40.7699 55.6776 40.9113 55.7156 41.0554 55.7156C41.1994 55.7156 41.3408 55.6776 41.4655 55.6055L47.3845 52.1988C47.5114 52.1277 47.6175 52.0248 47.6926 51.9002C47.7676 51.7757 47.8089 51.6337 47.8125 51.4884V44.6749C47.8089 44.5294 47.7675 44.3874 47.6923 44.2629C47.6172 44.1383 47.5109 44.0355 47.384 43.9645ZM41.0548 47.1338L39.6872 46.3443L43.9468 43.885L45.3144 44.6746L41.0548 47.1338ZM41.0548 42.2153L42.3062 42.9378L38.0466 45.3971L36.7951 44.6746L41.0548 42.2153ZM35.9766 46.0952L40.1953 48.5547V53.4742L35.9766 51.0147V46.0952ZM41.8359 53.4742V48.5547L46.1719 46.0952V51.0147L41.8359 53.4742Z" fill="#21A0DA"/>
</svg>
