<svg width="24" height="24" viewBox="0 0 24 24" fill="none" xmlns="http://www.w3.org/2000/svg">
<path d="M12.0001 0C7.58901 0 4.00012 3.58889 4.00012 8.00002C4.00012 9.32423 4.3312 10.6372 4.96059 11.8018L11.5627 23.7422C11.6505 23.9014 11.818 24 12.0001 24C12.1822 24 12.3497 23.9014 12.4376 23.7422L19.0421 11.7978C19.6691 10.6372 20.0002 9.32419 20.0002 7.99997C20.0002 3.58889 16.4113 0 12.0001 0ZM12.0001 12C9.79457 12 8.00015 10.2056 8.00015 8.00002C8.00015 5.79445 9.79457 4.00003 12.0001 4.00003C14.2057 4.00003 16.0001 5.79445 16.0001 8.00002C16.0001 10.2056 14.2057 12 12.0001 12Z" fill="#21A0DA"/>
</svg>
