<svg width="60" height="60" viewBox="0 0 60 60" fill="none" xmlns="http://www.w3.org/2000/svg">
<path d="M50.625 19.6875C52.1783 19.6875 53.4375 18.4283 53.4375 16.875C53.4375 15.3217 52.1783 14.0625 50.625 14.0625C49.0717 14.0625 47.8125 15.3217 47.8125 16.875C47.8125 18.4283 49.0717 19.6875 50.625 19.6875Z" fill="#21A0DA" fill-opacity="0.4"/>
<path d="M41.4844 15.8718L40.5094 19.4905C40.1217 20.9312 39.1788 22.1595 37.8872 22.9063C36.5957 23.6531 35.0608 23.8576 33.6188 23.4749L30 22.4999L30.975 18.8811C31.3597 17.4406 32.3006 16.2118 33.5909 15.4647C34.8812 14.7175 36.4154 14.5133 37.8563 14.8968L41.4844 15.8718Z" fill="#21A0DA" fill-opacity="0.4"/>
<path d="M35.625 30L33.1688 36.5625H26.8313L24.375 30C25.5469 30 26.0156 29.0625 27.1875 29.0625C28.3594 29.0625 28.8281 30.9375 30 30.9375C31.1719 30.9375 31.6406 29.0625 32.8125 29.0625C33.9844 29.0625 34.4531 30 35.625 30Z" fill="#21A0DA" fill-opacity="0.4"/>
<path d="M33.1688 36.5625L33 37.0031C32.0264 36.7126 31.016 36.5642 30 36.5625H33.1688Z" fill="#21A0DA" fill-opacity="0.4"/>
<path d="M29.025 18.8811L30 22.4999L26.3812 23.4749C24.9392 23.8576 23.4043 23.6531 22.1128 22.9063C20.8212 22.1595 19.8783 20.9312 19.4906 19.4905L18.5156 15.8718L22.1438 14.8968C23.5846 14.5133 25.1187 14.7175 26.4091 15.4647C27.6994 16.2118 28.6403 17.4406 29.025 18.8811Z" fill="#21A0DA" fill-opacity="0.4"/>
<path d="M26.8313 36.5625H30C28.9841 36.5642 27.9736 36.7126 27 37.0031L26.8313 36.5625Z" fill="#21A0DA" fill-opacity="0.4"/>
<path d="M36.0375 38.5125C35.1149 37.8457 34.0886 37.3358 33 37.0031C31.0431 36.4156 28.9569 36.4156 27 37.0031C24.8847 37.6486 23.0325 38.9562 21.7161 40.7334C20.3997 42.5105 19.6886 44.6634 19.6875 46.875V51.5625C19.6915 53.0531 20.2854 54.4815 21.3394 55.5356C22.3934 56.5896 23.8219 57.1835 25.3125 57.1875H34.6875C36.1781 57.1835 37.6066 56.5896 38.6606 55.5356C39.7146 54.4815 40.3085 53.0531 40.3125 51.5625V46.875C40.3151 45.2418 39.9287 43.6314 39.1853 42.1772C38.4419 40.723 37.3629 39.4668 36.0375 38.5125Z" fill="#21A0DA" fill-opacity="0.4"/>
<path d="M7.5 25.3125C9.0533 25.3125 10.3125 24.0533 10.3125 22.5C10.3125 20.9467 9.0533 19.6875 7.5 19.6875C5.9467 19.6875 4.6875 20.9467 4.6875 22.5C4.6875 24.0533 5.9467 25.3125 7.5 25.3125Z" fill="#21A0DA" fill-opacity="0.4"/>
<path d="M35.625 46.875H37.5V48.75H35.625V46.875Z" fill="#21A0DA"/>
<path d="M22.5 46.875H24.375V48.75H22.5V46.875Z" fill="#21A0DA"/>
<path d="M29.0625 45H30.9375C31.1861 45 31.4246 45.0988 31.6004 45.2746C31.7762 45.4504 31.875 45.6889 31.875 45.9375H33.75C33.75 45.1916 33.4537 44.4762 32.9262 43.9488C32.3988 43.4213 31.6834 43.125 30.9375 43.125V42.1875H29.0625V43.125C28.3166 43.125 27.6012 43.4213 27.0738 43.9488C26.5463 44.4762 26.25 45.1916 26.25 45.9375C26.25 46.6834 26.5463 47.3988 27.0738 47.9262C27.6012 48.4537 28.3166 48.75 29.0625 48.75H30.9375C31.1861 48.75 31.4246 48.8488 31.6004 49.0246C31.7762 49.2004 31.875 49.4389 31.875 49.6875C31.875 49.9361 31.7762 50.1746 31.6004 50.3504C31.4246 50.5262 31.1861 50.625 30.9375 50.625H29.0625C28.8139 50.625 28.5754 50.5262 28.3996 50.3504C28.2238 50.1746 28.125 49.9361 28.125 49.6875H26.25C26.25 50.4334 26.5463 51.1488 27.0738 51.6762C27.6012 52.2037 28.3166 52.5 29.0625 52.5V53.4375H30.9375V52.5C31.6834 52.5 32.3988 52.2037 32.9262 51.6762C33.4537 51.1488 33.75 50.4334 33.75 49.6875C33.75 48.9416 33.4537 48.2262 32.9262 47.6988C32.3988 47.1713 31.6834 46.875 30.9375 46.875H29.0625C28.8139 46.875 28.5754 46.7762 28.3996 46.6004C28.2238 46.4246 28.125 46.1861 28.125 45.9375C28.125 45.6889 28.2238 45.4504 28.3996 45.2746C28.5754 45.0988 28.8139 45 29.0625 45Z" fill="#21A0DA"/>
<path d="M49.6875 35.2724V33.7499H48.5803L50.5659 28.454C50.6191 28.3121 50.6371 28.1595 50.6184 28.0091C50.5997 27.8587 50.5448 27.7152 50.4584 27.5907C50.3721 27.4662 50.2568 27.3644 50.1226 27.2942C49.9883 27.224 49.839 27.1874 49.6875 27.1874C49.3488 27.163 49.0238 27.0434 48.75 26.8424C48.1932 26.4724 47.5433 26.2671 46.875 26.2499C46.4518 26.2897 46.0428 26.4231 45.6777 26.6405C45.3125 26.858 45.0003 27.154 44.7638 27.5071C44.5312 27.7687 44.2228 28.1249 44.0625 28.1249C43.9022 28.1249 43.5938 27.7687 43.3612 27.5071C43.1247 27.154 42.8125 26.858 42.4473 26.6405C42.0822 26.4231 41.6732 26.2897 41.25 26.2499C40.5817 26.2671 39.9318 26.4724 39.375 26.8424C39.1012 27.0434 38.7762 27.163 38.4375 27.1874C38.286 27.1874 38.1367 27.224 38.0024 27.2942C37.8682 27.3644 37.7529 27.4662 37.6666 27.5907C37.5802 27.7152 37.5253 27.8587 37.5066 28.0091C37.4879 28.1595 37.5059 28.3121 37.5591 28.454L39.5447 33.7499H38.4375V35.2659C37.4884 35.8148 36.6248 36.4999 35.8744 37.2993C35.7919 37.2478 35.7094 37.1962 35.625 37.1474V35.6249H34.5178L36.5034 30.329C36.5566 30.1871 36.5746 30.0345 36.5559 29.8841C36.5372 29.7337 36.4823 29.5902 36.3959 29.4657C36.3096 29.3412 36.1943 29.2394 36.0601 29.1692C35.9258 29.099 35.7765 29.0624 35.625 29.0624C35.2863 29.038 34.9613 28.9184 34.6875 28.7174C34.1307 28.3474 33.4808 28.1421 32.8125 28.1249C32.4469 28.1463 32.0903 28.246 31.7667 28.4175C31.4432 28.589 31.1604 28.8281 30.9375 29.1187V23.7187L33.375 24.3749C35.0562 24.8253 36.8474 24.5895 38.3547 23.7192C39.862 22.8489 40.9618 21.4155 41.4122 19.7343L42.3825 16.1128C42.4144 15.9938 42.4226 15.8698 42.4065 15.7477C42.3905 15.6256 42.3505 15.5079 42.289 15.4012C42.2274 15.2946 42.1455 15.2011 42.0478 15.1262C41.9501 15.0512 41.8386 14.9962 41.7197 14.9643L38.0981 13.994C36.7703 13.6413 35.3652 13.7138 34.0807 14.2014C32.7962 14.6889 31.6969 15.5669 30.9375 16.7118V14.6006C32.0766 13.8806 34.6875 11.8584 34.6875 8.43745C34.6875 4.15776 30.5934 2.06245 30.4191 1.97339C30.2889 1.90836 30.1455 1.87451 30 1.87451C29.8545 1.87451 29.7111 1.90836 29.5809 1.97339C29.4066 2.06245 25.3125 4.15776 25.3125 8.43745C25.3125 11.8584 27.9234 13.8806 29.0625 14.6006V16.7118C28.3028 15.5659 27.2028 14.6872 25.9173 14.1995C24.6319 13.7117 23.2258 13.6395 21.8972 13.9931L18.2756 14.9634C18.1567 14.9953 18.0452 15.0503 17.9475 15.1252C17.8498 15.2002 17.7679 15.2937 17.7063 15.4003C17.6448 15.507 17.6048 15.6247 17.5888 15.7468C17.5727 15.8688 17.5809 15.9929 17.6128 16.1118L18.5831 19.7334C18.8043 20.5675 19.1881 21.3496 19.7125 22.0348C20.2369 22.7201 20.8916 23.2949 21.639 23.7262C22.3863 24.1576 23.2116 24.437 24.0672 24.5483C24.9229 24.6596 25.7922 24.6007 26.625 24.3749L29.0625 23.7187V29.1187C28.8396 28.8281 28.5568 28.589 28.2333 28.4175C27.9097 28.246 27.5531 28.1463 27.1875 28.1249C26.5192 28.1421 25.8693 28.3474 25.3125 28.7174C25.0387 28.9184 24.7137 29.038 24.375 29.0624C24.2235 29.0624 24.0742 29.099 23.9399 29.1692C23.8057 29.2394 23.6904 29.3412 23.6041 29.4657C23.5177 29.5902 23.4628 29.7337 23.4441 29.8841C23.4254 30.0345 23.4434 30.1871 23.4966 30.329L25.4822 35.6249H24.375V37.1474C24.2906 37.1962 24.2081 37.2478 24.1256 37.2993C23.3752 36.4999 22.5116 35.8148 21.5625 35.2659V33.7499H20.4553L22.4409 28.454C22.4941 28.3121 22.5121 28.1595 22.4934 28.0091C22.4747 27.8587 22.4198 27.7152 22.3334 27.5907C22.2471 27.4662 22.1318 27.3644 21.9976 27.2942C21.8633 27.224 21.714 27.1874 21.5625 27.1874C21.2238 27.163 20.8988 27.0434 20.625 26.8424C20.0682 26.4724 19.4183 26.2671 18.75 26.2499C18.3268 26.2897 17.9178 26.4231 17.5526 26.6405C17.1875 26.858 16.8753 27.154 16.6387 27.5071C16.4062 27.7687 16.0978 28.1249 15.9375 28.1249C15.7772 28.1249 15.4688 27.7687 15.2363 27.5071C14.9997 27.154 14.6875 26.858 14.3223 26.6405C13.9572 26.4231 13.5482 26.2897 13.125 26.2499C12.4567 26.2671 11.8068 26.4724 11.25 26.8424C10.9762 27.0434 10.6512 27.163 10.3125 27.1874C10.161 27.1874 10.0117 27.224 9.87743 27.2942C9.74316 27.3644 9.62791 27.4662 9.54156 27.5907C9.45521 27.7152 9.40032 27.8587 9.3816 28.0091C9.36288 28.1595 9.38088 28.3121 9.43406 28.454L11.4197 33.7499H10.3125V35.2724C8.60453 36.2585 7.18579 37.6763 6.19853 39.3836C5.21127 41.0909 4.69018 43.0278 4.6875 44.9999V49.6874C4.68949 51.4273 5.38153 53.0954 6.6118 54.3256C7.84208 55.5559 9.51013 56.248 11.25 56.2499H20.625C20.6578 56.2499 20.6897 56.2453 20.7188 56.2443C21.9432 57.4508 23.5935 58.1264 25.3125 58.1249H34.6875C36.4065 58.1264 38.0568 57.4508 39.2812 56.2443C39.3141 56.2443 39.3459 56.2499 39.375 56.2499H48.75C50.4899 56.248 52.1579 55.5559 53.3882 54.3256C54.6185 53.0954 55.3105 51.4273 55.3125 49.6874V44.9999C55.3098 43.0278 54.7887 41.0909 53.8015 39.3836C52.8142 37.6763 51.3955 36.2585 49.6875 35.2724ZM31.875 19.1249C32.0343 18.5303 32.3091 17.9728 32.6839 17.4844C33.0586 16.996 33.5259 16.5861 34.059 16.2783C34.5921 15.9705 35.1807 15.7707 35.791 15.6903C36.4014 15.6099 37.0216 15.6506 37.6162 15.8099L40.335 16.5384L39.6075 19.2571C39.2856 20.4579 38.4999 21.4817 37.4232 22.1032C36.3465 22.7247 35.0671 22.8931 33.8663 22.5712L31.1475 21.8437L31.875 19.1249ZM26.1337 22.5693C24.9329 22.8912 23.6535 22.7228 22.5768 22.1013C21.5001 21.4798 20.7144 20.4561 20.3925 19.2553L19.665 16.5365L22.3837 15.8081C23.5849 15.4879 24.864 15.6573 25.9404 16.2791C27.0167 16.901 27.8024 17.9244 28.125 19.1249L28.8525 21.8437L26.1337 22.5693ZM39.6881 28.7981C39.9022 28.7005 40.1107 28.5909 40.3125 28.4699C40.5863 28.269 40.9113 28.1494 41.25 28.1249C41.4103 28.1249 41.7188 28.4812 41.9513 28.7428C42.1878 29.0959 42.5 29.3919 42.8652 29.6094C43.2303 29.8268 43.6393 29.9602 44.0625 29.9999C44.4857 29.9602 44.8947 29.8268 45.2598 29.6094C45.625 29.3919 45.9372 29.0959 46.1737 28.7428C46.4062 28.4812 46.7147 28.1249 46.875 28.1249C47.2137 28.1494 47.5387 28.269 47.8125 28.4699C48.0129 28.5892 48.2198 28.6971 48.4322 28.7934L46.5778 33.7499H41.5472L39.6881 28.7981ZM27.1875 8.43745C27.1875 6.0187 29.1253 4.47557 30 3.90276C30.8766 4.47651 32.8125 6.01964 32.8125 8.43745C32.8125 10.8553 30.8747 12.3993 30 12.9721C29.1234 12.3984 27.1875 10.8553 27.1875 8.43745ZM25.6266 30.6684C25.8402 30.5723 26.0484 30.4643 26.25 30.3449C26.5238 30.144 26.8488 30.0244 27.1875 29.9999C27.3478 29.9999 27.6562 30.3562 27.8888 30.6178C28.1253 30.9709 28.4375 31.2669 28.8026 31.4844C29.1678 31.7018 29.5768 31.8352 30 31.8749C30.4232 31.8352 30.8322 31.7018 31.1973 31.4844C31.5625 31.2669 31.8747 30.9709 32.1112 30.6178C32.3437 30.3562 32.6522 29.9999 32.8125 29.9999C33.1512 30.0244 33.4762 30.144 33.75 30.3449C33.9504 30.4642 34.1573 30.5721 34.3697 30.6684L32.5153 35.6249H27.4847L25.6266 30.6684ZM11.5641 28.7934C11.7777 28.6973 11.9859 28.5893 12.1875 28.4699C12.4613 28.269 12.7863 28.1494 13.125 28.1249C13.2853 28.1249 13.5938 28.4812 13.8263 28.7428C14.0628 29.0959 14.375 29.3919 14.7402 29.6094C15.1053 29.8268 15.5143 29.9602 15.9375 29.9999C16.3607 29.9602 16.7697 29.8268 17.1349 29.6094C17.5 29.3919 17.8122 29.0959 18.0488 28.7428C18.2813 28.4812 18.5897 28.1249 18.75 28.1249C19.0887 28.1494 19.4137 28.269 19.6875 28.4699C19.8879 28.5892 20.0948 28.6971 20.3072 28.7934L18.4528 33.7499H13.4222L11.5641 28.7934ZM6.5625 49.6874V44.9999C6.56479 43.1405 7.11938 41.3236 8.1559 39.7799C9.19242 38.2361 10.6642 37.035 12.3844 36.329C12.2571 36.7064 12.1907 37.1017 12.1875 37.4999V38.4374H14.0625V37.4999C14.0625 37.0027 14.26 36.5258 14.6117 36.1741C14.9633 35.8225 15.4402 35.6249 15.9375 35.6249C16.4348 35.6249 16.9117 35.8225 17.2633 36.1741C17.615 36.5258 17.8125 37.0027 17.8125 37.4999V38.4374H19.6875V37.4999C19.6843 37.1037 19.6185 36.7104 19.4925 36.3346C20.6612 36.8104 21.7215 37.5177 22.6097 38.414C21.3988 39.4663 20.4276 40.7661 19.7618 42.2257C19.096 43.6853 18.7509 45.2707 18.75 46.8749V51.5624C18.7508 52.5362 18.9703 53.4973 19.3922 54.3749H11.25C10.0073 54.3735 8.81584 53.8791 7.93708 53.0004C7.05833 52.1216 6.56399 50.9302 6.5625 49.6874ZM34.6875 56.2499H25.3125C24.0698 56.2485 22.8783 55.7541 21.9996 54.8754C21.1208 53.9966 20.6265 52.8052 20.625 51.5624V46.8749C20.6273 45.0155 21.1819 43.1986 22.2184 41.6549C23.2549 40.1111 24.7267 38.91 26.4469 38.204C26.3196 38.5814 26.2532 38.9767 26.25 39.3749V40.3124H28.125V39.3749C28.125 38.8777 28.3225 38.4008 28.6742 38.0491C29.0258 37.6975 29.5027 37.4999 30 37.4999C30.4973 37.4999 30.9742 37.6975 31.3258 38.0491C31.6775 38.4008 31.875 38.8777 31.875 39.3749V40.3124H33.75V39.3749C33.7468 38.9767 33.6804 38.5814 33.5531 38.204C35.2733 38.91 36.7451 40.1111 37.7816 41.6549C38.8181 43.1986 39.3727 45.0155 39.375 46.8749V51.5624C39.3735 52.8052 38.8792 53.9966 38.0004 54.8754C37.1217 55.7541 35.9302 56.2485 34.6875 56.2499ZM53.4375 49.6874C53.436 50.9302 52.9417 52.1216 52.0629 53.0004C51.1842 53.8791 49.9927 54.3735 48.75 54.3749H40.6078C41.0297 53.4973 41.2492 52.5362 41.25 51.5624V46.8749C41.2491 45.2707 40.904 43.6853 40.2382 42.2257C39.5724 40.7661 38.6012 39.4663 37.3903 38.414C38.2785 37.5177 39.3388 36.8104 40.5075 36.3346C40.3815 36.7104 40.3157 37.1037 40.3125 37.4999V38.4374H42.1875V37.4999C42.1875 37.0027 42.385 36.5258 42.7367 36.1741C43.0883 35.8225 43.5652 35.6249 44.0625 35.6249C44.5598 35.6249 45.0367 35.8225 45.3883 36.1741C45.74 36.5258 45.9375 37.0027 45.9375 37.4999V38.4374H47.8125V37.4999C47.8093 37.1017 47.7429 36.7064 47.6156 36.329C49.3358 37.035 50.8076 38.2361 51.8441 39.7799C52.8806 41.3236 53.4352 43.1405 53.4375 44.9999V49.6874Z" fill="#21A0DA"/>
<path d="M7.5 26.25C8.24168 26.25 8.9667 26.0301 9.58339 25.618C10.2001 25.206 10.6807 24.6203 10.9645 23.9351C11.2484 23.2498 11.3226 22.4958 11.1779 21.7684C11.0332 21.041 10.6761 20.3728 10.1516 19.8484C9.6272 19.3239 8.95902 18.9668 8.23159 18.8221C7.50416 18.6774 6.75016 18.7516 6.06494 19.0355C5.37971 19.3193 4.79404 19.7999 4.38199 20.4166C3.96993 21.0333 3.75 21.7583 3.75 22.5C3.75 23.4946 4.14509 24.4484 4.84835 25.1517C5.55161 25.8549 6.50544 26.25 7.5 26.25ZM7.5 20.625C7.87084 20.625 8.23335 20.735 8.54169 20.941C8.85004 21.147 9.09036 21.4399 9.23227 21.7825C9.37419 22.1251 9.41132 22.5021 9.33897 22.8658C9.26662 23.2295 9.08805 23.5636 8.82582 23.8258C8.5636 24.0881 8.22951 24.2666 7.86579 24.339C7.50208 24.4113 7.12508 24.3742 6.78247 24.2323C6.43986 24.0904 6.14702 23.85 5.94099 23.5417C5.73497 23.2334 5.625 22.8708 5.625 22.5C5.625 22.0027 5.82254 21.5258 6.17417 21.1742C6.5258 20.8225 7.00272 20.625 7.5 20.625Z" fill="#21A0DA"/>
<path d="M50.625 20.625C51.3667 20.625 52.0917 20.4051 52.7084 19.993C53.3251 19.581 53.8057 18.9953 54.0896 18.3101C54.3734 17.6248 54.4477 16.8708 54.303 16.1434C54.1583 15.416 53.8011 14.7478 53.2767 14.2234C52.7522 13.6989 52.084 13.3418 51.3566 13.1971C50.6292 13.0524 49.8752 13.1266 49.1899 13.4105C48.5047 13.6943 47.919 14.1749 47.507 14.7916C47.0949 15.4083 46.875 16.1333 46.875 16.875C46.875 17.8696 47.2701 18.8234 47.9734 19.5267C48.6766 20.2299 49.6304 20.625 50.625 20.625ZM50.625 15C50.9958 15 51.3584 15.11 51.6667 15.316C51.975 15.522 52.2154 15.8149 52.3573 16.1575C52.4992 16.5001 52.5363 16.8771 52.464 17.2408C52.3916 17.6045 52.2131 17.9386 51.9508 18.2008C51.6886 18.463 51.3545 18.6416 50.9908 18.714C50.6271 18.7863 50.2501 18.7492 49.9075 18.6073C49.5649 18.4654 49.272 18.225 49.066 17.9167C48.86 17.6084 48.75 17.2458 48.75 16.875C48.75 16.3777 48.9475 15.9008 49.2992 15.5492C49.6508 15.1975 50.1277 15 50.625 15Z" fill="#21A0DA"/>
<path d="M4.6875 13.125H6.5625V16.875H4.6875V13.125Z" fill="#21A0DA"/>
<path d="M4.6875 9.375H6.5625V11.25H4.6875V9.375Z" fill="#21A0DA"/>
<path d="M8.4375 11.25H10.3125V15H8.4375V11.25Z" fill="#21A0DA"/>
<path d="M8.4375 7.5H10.3125V9.375H8.4375V7.5Z" fill="#21A0DA"/>
<path d="M8.4375 3.75H10.3125V5.625H8.4375V3.75Z" fill="#21A0DA"/>
<path d="M47.8125 7.5H49.6875V11.25H47.8125V7.5Z" fill="#21A0DA"/>
<path d="M47.8125 3.75H49.6875V5.625H47.8125V3.75Z" fill="#21A0DA"/>
<path d="M51.5625 5.625H53.4375V9.375H51.5625V5.625Z" fill="#21A0DA"/>
<path d="M51.5625 1.875H53.4375V3.75H51.5625V1.875Z" fill="#21A0DA"/>
</svg>
