<svg width="70" height="70" viewBox="0 0 70 70" fill="none" xmlns="http://www.w3.org/2000/svg">
<path d="M5.31567 20.4004H16.1299C16.6961 20.4004 17.1552 19.9414 17.1552 19.375C17.1552 18.8086 16.6961 18.3496 16.1299 18.3496H5.31567C4.74939 18.3496 4.29028 18.8086 4.29028 19.375C4.29028 19.9414 4.74925 20.4004 5.31567 20.4004Z" fill="#ffffff"/>
<path d="M15.7587 25.3359H11.4868C10.9205 25.3359 10.4614 25.7949 10.4614 26.3613C10.4614 26.9278 10.9205 27.3867 11.4868 27.3867H15.7587C16.325 27.3867 16.7841 26.9278 16.7841 26.3613C16.7841 25.7949 16.325 25.3359 15.7587 25.3359Z" fill="#ffffff"/>
<path d="M1.02539 32.4473H11.486C12.0523 32.4473 12.5114 31.9883 12.5114 31.4219C12.5114 30.8554 12.0523 30.3965 11.486 30.3965H1.02539C0.459102 30.3965 0 30.8554 0 31.4219C0 31.9883 0.459102 32.4473 1.02539 32.4473Z" fill="#ffffff"/>
<path d="M17.1552 50.626C17.1552 50.0596 16.6961 49.6006 16.1299 49.6006H5.31567C4.74939 49.6006 4.29028 50.0596 4.29028 50.626C4.29028 51.1924 4.74939 51.6514 5.31567 51.6514H16.1299C16.6961 51.6514 17.1552 51.1924 17.1552 50.626Z" fill="#ffffff"/>
<path d="M15.7587 42.6123H11.4868C10.9205 42.6123 10.4614 43.0713 10.4614 43.6377C10.4614 44.2041 10.9205 44.6631 11.4868 44.6631H15.7587C16.325 44.6631 16.7841 44.2041 16.7841 43.6377C16.7841 43.0713 16.325 42.6123 15.7587 42.6123Z" fill="#ffffff"/>
<path d="M12.5114 38.5791C12.5114 38.0127 12.0523 37.5537 11.486 37.5537H1.02539C0.459102 37.5537 0 38.0127 0 38.5791C0 39.1455 0.459102 39.6045 1.02539 39.6045H11.486C12.0523 39.6045 12.5114 39.1455 12.5114 38.5791Z" fill="#ffffff"/>
<path d="M43.6853 22.6726C44.2517 22.6726 44.7107 22.2136 44.7107 21.6472V20.082C44.7107 19.5156 44.2517 19.0566 43.6853 19.0566C43.1189 19.0566 42.6599 19.5156 42.6599 20.082V21.6472C42.6599 22.2136 43.1189 22.6726 43.6853 22.6726Z" fill="#ffffff"/>
<path d="M54.9583 23.725C54.5577 23.3247 53.9086 23.3247 53.5081 23.725L52.4014 24.8318C52.001 25.2324 52.001 25.8815 52.4014 26.2819C52.8021 26.6824 53.4511 26.6823 53.8516 26.2819L54.9583 25.1752C55.3586 24.7748 55.3586 24.1256 54.9583 23.725Z" fill="#ffffff"/>
<path d="M57.0388 33.9746C56.4724 33.9746 56.0134 34.4336 56.0134 35C56.0134 35.5664 56.4724 36.0254 57.0388 36.0254H58.6038C59.1703 36.0254 59.6292 35.5664 59.6292 35C59.6292 34.4336 59.1703 33.9746 58.6038 33.9746H57.0388Z" fill="#ffffff"/>
<path d="M53.8516 43.7172C53.451 43.3169 52.8019 43.3169 52.4014 43.7172C52.001 44.1178 52.001 44.767 52.4014 45.1674L53.5082 46.2742C53.9089 46.6746 54.5579 46.6745 54.9583 46.2742C55.3588 45.8736 55.3588 45.2244 54.9583 44.824L53.8516 43.7172Z" fill="#ffffff"/>
<path d="M42.6599 48.3545V49.9195C42.6599 50.4859 43.1189 50.9449 43.6853 50.9449C44.2517 50.9449 44.7107 50.4859 44.7107 49.9195V48.3545C44.7107 47.7881 44.2517 47.3291 43.6853 47.3291C43.1189 47.3291 42.6599 47.7882 42.6599 48.3545Z" fill="#ffffff"/>
<path d="M33.5162 43.7172L32.4095 44.824C32.009 45.2246 32.009 45.8737 32.4095 46.2742C32.8101 46.6746 33.4592 46.6745 33.8595 46.2742L34.9662 45.1674C35.3667 44.7668 35.3667 44.1177 34.9662 43.7172C34.5659 43.3169 33.9166 43.3169 33.5162 43.7172Z" fill="#ffffff"/>
<path d="M28.7686 33.9746C28.2023 33.9746 27.7432 34.4336 27.7432 35C27.7432 35.5664 28.2023 36.0254 28.7686 36.0254H30.3337C30.9 36.0254 31.3591 35.5664 31.3591 35C31.3591 34.4336 30.9 33.9746 30.3337 33.9746H28.7686Z" fill="#ffffff"/>
<path d="M34.9687 24.8318L33.8619 23.725C33.4615 23.3247 32.8122 23.3247 32.4119 23.725C32.0115 24.1256 32.0115 24.7748 32.4119 25.1752L33.5186 26.2819C33.9192 26.6824 34.5684 26.6823 34.9687 26.2819C35.3691 25.8815 35.3691 25.2324 34.9687 24.8318Z" fill="#ffffff"/>
<path d="M49.1992 34.9997C49.1992 34.4333 48.7402 33.9744 48.1738 33.9744H44.7107V26.3613C44.7107 25.7949 44.2517 25.3359 43.6853 25.3359C43.1189 25.3359 42.6599 25.7949 42.6599 26.3613V34.9997C42.6599 35.5662 43.1189 36.0251 43.6853 36.0251H48.1738C48.7401 36.0251 49.1992 35.5662 49.1992 34.9997Z" fill="#ffffff"/>
<path d="M63.1287 34.8302C63.694 34.7959 64.1244 34.3099 64.0901 33.7447C63.4378 22.9845 54.4751 14.5557 43.6855 14.5557C32.4128 14.5557 23.2417 23.7268 23.2417 34.9996C23.2417 46.2724 32.4128 55.4435 43.6855 55.4435C53.7848 55.4435 62.4023 48.044 63.9015 38.0587C63.9855 37.4987 63.5997 36.9766 63.0396 36.8925C62.4809 36.8087 61.9574 37.1941 61.8734 37.7544C60.5267 46.725 52.7807 53.3928 43.6855 53.3928C33.5436 53.3928 25.2925 45.1417 25.2925 34.9998C25.2925 24.8578 33.5436 16.6066 43.6855 16.6066C53.3927 16.6066 61.4562 24.1891 62.043 33.8691C62.0772 34.434 62.5628 34.863 63.1287 34.8302Z" fill="#ffffff"/>
<path d="M43.6844 8.68555C40.0777 8.68555 36.5439 9.43381 33.2913 10.8331H15.1995C14.6332 10.8331 14.1741 11.2921 14.1741 11.8585C14.1741 12.4249 14.6332 12.8839 15.1995 12.8839H29.4337C27.5091 14.1226 25.7373 15.6166 24.1752 17.3415C23.7951 17.7611 23.8271 18.4095 24.2468 18.7897C24.6667 19.17 25.3149 19.1378 25.6952 18.7181C30.2893 13.6456 36.8462 10.7363 43.6844 10.7363C57.0635 10.7363 67.9482 21.6209 67.9482 34.9999C67.9482 48.3788 57.0636 59.2635 43.6844 59.2635C30.3054 59.2635 19.4208 48.379 19.4208 34.9999C19.4208 30.3149 20.7591 25.7676 23.2909 21.8495C23.5982 21.3739 23.4618 20.7392 22.9861 20.4319C22.5105 20.1247 21.8759 20.2608 21.5684 20.7366C18.8217 24.9869 17.37 29.9191 17.37 34.9999C17.37 44.2648 22.1833 52.4258 29.4402 57.116H15.1996C14.6333 57.116 14.1742 57.5749 14.1742 58.1414C14.1742 58.7078 14.6333 59.1668 15.1996 59.1668H33.2773C36.471 60.5475 39.9897 61.3143 43.6846 61.3143C58.1943 61.3143 69.999 49.5098 69.999 34.9999C69.999 20.4901 58.1943 8.68555 43.6844 8.68555Z" fill="#ffffff"/>
</svg>
