<svg width="70" height="70" viewBox="0 0 70 70" fill="none" xmlns="http://www.w3.org/2000/svg">
<g clip-path="url(#clip0)">
<path d="M57.9264 49.2846H62.3451C62.9114 49.2846 63.3705 48.8256 63.3705 48.2592V12.9023C63.3705 12.3359 62.9114 11.877 62.3451 11.877H7.65491C7.08862 11.877 6.62952 12.3359 6.62952 12.9023V48.2592C6.62952 48.8256 7.08862 49.2846 7.65491 49.2846H53.1276C53.6939 49.2846 54.153 48.8256 54.153 48.2592C54.153 47.6928 53.6939 47.2338 53.1276 47.2338H8.6803V13.9277H61.3198V47.2338H57.9264C57.3601 47.2338 56.901 47.6928 56.901 48.2592C56.901 48.8256 57.3601 49.2846 57.9264 49.2846Z" fill="#ffffff"/>
<path d="M68.9746 51.6523H67.7906V11.2451C67.7906 9.15688 66.0911 7.45801 64.0022 7.45801H16.4596C15.8933 7.45801 15.4342 7.91697 15.4342 8.4834C15.4342 9.04982 15.8933 9.50879 16.4596 9.50879H64.0022C64.9603 9.50879 65.7398 10.2877 65.7398 11.2451V51.6523H4.26016V11.2451C4.26016 10.2877 5.03973 9.50879 5.99785 9.50879H11.6662C12.2325 9.50879 12.6916 9.04982 12.6916 8.4834C12.6916 7.91697 12.2325 7.45801 11.6662 7.45801H5.99785C3.90893 7.45801 2.20937 9.15688 2.20937 11.2451V51.6523H1.02539C0.459102 51.6523 0 52.1113 0 52.6777V58.2025C0 60.5954 1.94674 62.542 4.33945 62.542H9.37207C9.93836 62.542 10.3975 62.083 10.3975 61.5166C10.3975 60.9502 9.93836 60.4912 9.37207 60.4912H4.33945C3.07754 60.4912 2.05078 59.4645 2.05078 58.2025V53.7031H27.3406L27.8912 55.465C28.388 57.0547 29.8408 58.1227 31.5063 58.1227H38.4934C40.1589 58.1227 41.6117 57.0547 42.1086 55.465L42.6591 53.7031H67.9492V58.2025C67.9492 59.4645 66.9225 60.4912 65.6605 60.4912H14.1709C13.6046 60.4912 13.1455 60.9502 13.1455 61.5166C13.1455 62.083 13.6046 62.542 14.1709 62.542H65.6605C68.0533 62.542 70 60.5954 70 58.2025V52.6777C70 52.1113 69.5409 51.6523 68.9746 51.6523ZM40.1513 54.8532C39.9235 55.5822 39.2573 56.0719 38.4936 56.0719H31.5064C30.7427 56.0719 30.0765 55.5822 29.8487 54.8532L29.4893 53.7031H40.5107L40.1513 54.8532Z" fill="#ffffff"/>
<path d="M25.7468 32.1586C26.2356 32.1586 26.6564 31.8136 26.7522 31.3343L27.9953 25.1194C28.0554 24.8182 27.9775 24.5058 27.7828 24.2681C27.588 24.0307 27.297 23.8928 26.9898 23.8928H19.1176C18.5513 23.8928 18.0922 24.3518 18.0922 24.9182C18.0922 25.4847 18.5513 25.9436 19.1176 25.9436H25.739L24.9061 30.1078H16.9336L15.5685 22.6617C15.4792 22.1747 15.055 21.8213 14.5599 21.8213H12.0741C11.5078 21.8213 11.0487 22.2803 11.0487 22.8467C11.0487 23.4131 11.5078 23.8721 12.0741 23.8721H13.7056L15.0539 31.2264V35.5528C15.0539 36.1192 15.513 36.5781 16.0793 36.5781H16.1273C16.097 36.6918 16.0793 36.8106 16.0793 36.9338C16.0793 37.6965 16.6977 38.3149 17.4604 38.3149C18.0862 38.3149 18.6139 37.8986 18.7837 37.3279C18.824 37.1982 18.8458 37.0602 18.8458 36.9172C18.8458 36.8 18.8296 36.6868 18.8022 36.5781H21.0992C21.094 36.5987 21.0877 36.6189 21.0835 36.6398C21.0628 36.7347 21.0513 36.8329 21.0513 36.9339C21.0513 37.6966 21.6697 38.315 22.4325 38.315C23.1006 38.315 23.6579 37.8405 23.7858 37.2101C23.8062 37.1157 23.8176 37.0178 23.8176 36.9174C23.8176 36.8002 23.8014 36.687 23.7739 36.5783H24.0898C24.6561 36.5783 25.1152 36.1193 25.1152 35.5529C25.1152 34.9865 24.6561 34.5275 24.0898 34.5275H17.1048V32.1589H25.7468V32.1586Z" fill="#ffffff"/>
<path d="M39.6162 19.5322C39.6162 18.9658 39.1571 18.5068 38.5908 18.5068H34.1714C33.6051 18.5068 33.146 18.9658 33.146 19.5322V23.9517C33.146 24.5181 33.6051 24.9771 34.1714 24.9771H38.5908C39.1571 24.9771 39.6162 24.5181 39.6162 23.9517V19.5322ZM37.5654 22.9264H35.1968V20.5578H37.5654V22.9264Z" fill="#ffffff"/>
<path d="M43.0104 24.9766H52.4017C52.968 24.9766 53.4271 24.5176 53.4271 23.9512C53.4271 23.3847 52.968 22.9258 52.4017 22.9258H43.0104C42.4441 22.9258 41.985 23.3847 41.985 23.9512C41.985 24.5176 42.4441 24.9766 43.0104 24.9766Z" fill="#ffffff"/>
<path d="M43.0104 20.5576H57.9261C58.4924 20.5576 58.9515 20.0987 58.9515 19.5322C58.9515 18.9658 58.4924 18.5068 57.9261 18.5068H43.0104C42.4441 18.5068 41.985 18.9658 41.985 19.5322C41.985 20.0987 42.4441 20.5576 43.0104 20.5576Z" fill="#ffffff"/>
<path d="M39.6162 28.3711C39.6162 27.8047 39.1571 27.3457 38.5908 27.3457H34.1714C33.6051 27.3457 33.146 27.8047 33.146 28.3711V32.7905C33.146 33.357 33.6051 33.8159 34.1714 33.8159H38.5908C39.1571 33.8159 39.6162 33.357 39.6162 32.7905V28.3711ZM37.5654 31.7651H35.1968V29.3965H37.5654V31.7651Z" fill="#ffffff"/>
<path d="M43.0104 33.8154H52.4017C52.968 33.8154 53.4271 33.3565 53.4271 32.79C53.4271 32.2236 52.968 31.7646 52.4017 31.7646H43.0104C42.4441 31.7646 41.985 32.2236 41.985 32.79C41.985 33.3565 42.4441 33.8154 43.0104 33.8154Z" fill="#ffffff"/>
<path d="M43.0104 29.3965H57.9261C58.4924 29.3965 58.9515 28.9375 58.9515 28.3711C58.9515 27.8047 58.4924 27.3457 57.9261 27.3457H43.0104C42.4441 27.3457 41.985 27.8047 41.985 28.3711C41.985 28.9375 42.4441 29.3965 43.0104 29.3965Z" fill="#ffffff"/>
<path d="M38.5908 36.1846H34.1714C33.6051 36.1846 33.146 36.6435 33.146 37.21V41.6294C33.146 42.1958 33.6051 42.6548 34.1714 42.6548H38.5908C39.1571 42.6548 39.6162 42.1958 39.6162 41.6294V37.21C39.6162 36.6437 39.1571 36.1846 38.5908 36.1846ZM37.5654 40.604H35.1968V38.2354H37.5654V40.604Z" fill="#ffffff"/>
<path d="M43.0104 40.6035C42.4441 40.6035 41.985 41.0625 41.985 41.6289C41.985 42.1953 42.4441 42.6543 43.0104 42.6543H52.4017C52.968 42.6543 53.4271 42.1953 53.4271 41.6289C53.4271 41.0625 52.968 40.6035 52.4017 40.6035H43.0104Z" fill="#ffffff"/>
<path d="M58.9515 37.21C58.9515 36.6435 58.4924 36.1846 57.9261 36.1846H43.0104C42.4441 36.1846 41.985 36.6435 41.985 37.21C41.985 37.7764 42.4441 38.2354 43.0104 38.2354H57.9261C58.4924 38.2354 58.9515 37.7764 58.9515 37.21Z" fill="#ffffff"/>
</g>
<defs>
<clipPath id="clip0">
<rect width="70" height="70" fill="white"/>
</clipPath>
</defs>
</svg>
