<svg width="70" height="70" viewBox="0 0 70 70" fill="none" xmlns="http://www.w3.org/2000/svg">
<path d="M65.0587 36.645C62.4637 36.1055 58.9482 35.8203 54.8926 35.8203C53.2187 35.8203 51.6388 35.8697 50.1758 35.9647V3.75977C50.1758 1.6867 48.4891 0 46.416 0H3.75977C1.58115 0 0 1.81125 0 4.30664V61.0449C0 62.5306 1.6424 64.2578 3.75977 64.2578H39.7852V65.8301C39.7852 68.148 43.5042 68.9212 44.7264 69.1753C47.3215 69.7148 50.837 70 54.8926 70C58.9482 70 62.4637 69.7148 65.0587 69.1753C66.281 68.9212 70 68.148 70 65.8301V39.9902C70 37.6723 66.281 36.8992 65.0587 36.645ZM67.9492 52.9036C67.928 52.9476 67.5013 53.7012 64.2986 54.3162C61.8678 54.7828 58.6153 55.0294 54.8926 55.0294C51.1699 55.0294 47.9173 54.7828 45.4866 54.3162C42.2051 53.6862 41.8377 52.9102 41.8359 52.9102V48.9143C42.9092 49.417 44.1224 49.6698 44.7264 49.7953C47.3215 50.3348 50.837 50.62 54.8926 50.62C58.9482 50.62 62.4637 50.3348 65.0587 49.7953C65.6626 49.6698 66.876 49.417 67.9492 48.9143V52.9036ZM26.3867 53.1152C25.8203 53.1152 25.3613 53.5742 25.3613 54.1406V56.7383H9.77539C9.24096 56.7383 8.88672 56.3005 8.88672 56.123V45.9375H25.3613V49.3555C25.3613 49.9219 25.8203 50.3809 26.3867 50.3809C26.9531 50.3809 27.4121 49.9219 27.4121 49.3555V45.9375H39.7852V56.7383H27.4121V54.1406C27.4121 53.5742 26.9531 53.1152 26.3867 53.1152ZM43.8867 36.8323C42.3145 37.2179 39.7852 38.0784 39.7852 39.9902V43.8867H27.4121V33.0859H42.998C43.488 33.0859 43.8867 33.4846 43.8867 33.9746V36.8323ZM25.3613 43.8867H8.88672V34.248C8.88672 33.553 9.24383 33.0859 9.77539 33.0859H25.3613V43.8867ZM67.9492 46.4436C67.928 46.4877 67.5013 47.2412 64.2986 47.8562C61.8678 48.3228 58.6153 48.5695 54.8926 48.5695C51.1699 48.5695 47.9173 48.3228 45.4866 47.8562C42.2051 47.2262 41.8377 46.4502 41.8359 46.4502V42.4543C42.9092 42.957 44.1224 43.2098 44.7264 43.3353C47.3215 43.875 50.837 44.1602 54.8926 44.1602C58.9482 44.1602 62.4637 43.875 65.0587 43.3355C65.6626 43.21 66.876 42.9572 67.9492 42.4545V46.4436ZM64.2986 38.5844C67.3914 39.1781 67.8956 39.9016 67.9458 39.9902C67.8956 40.0788 67.3914 40.8023 64.2986 41.3961C61.8678 41.8627 58.6153 42.1094 54.8926 42.1094C51.1699 42.1094 47.9173 41.8627 45.4866 41.3961C42.3937 40.8023 41.8895 40.0788 41.8394 39.9902C41.8895 39.9016 42.3937 39.1781 45.4866 38.5844C47.9173 38.1177 51.1699 37.8711 54.8926 37.8711C58.6153 37.8711 61.8678 38.1177 64.2986 38.5844ZM3.75977 62.207C2.77238 62.207 2.05078 61.3915 2.05078 61.0449V27.6172H35.8203C36.3867 27.6172 36.8457 27.1582 36.8457 26.5918C36.8457 26.0254 36.3867 25.5664 35.8203 25.5664H2.05078V4.30664C2.05078 2.93631 2.72152 2.05078 3.75977 2.05078H46.416C47.3584 2.05078 48.125 2.81736 48.125 3.75977V25.5664H40.6055C40.039 25.5664 39.5801 26.0254 39.5801 26.5918C39.5801 27.1582 40.039 27.6172 40.6055 27.6172H48.125V36.1359C47.3498 36.2167 46.6196 36.3128 45.9375 36.4234V33.9746C45.9375 32.3538 44.6188 31.0352 42.998 31.0352H9.77539C8.09963 31.0352 6.83594 32.4164 6.83594 34.248V56.123C6.83594 57.5433 8.20955 58.7891 9.77539 58.7891H39.7852V62.207H3.75977ZM64.2986 67.236C61.8678 67.7026 58.6153 67.9492 54.8926 67.9492C51.1699 67.9492 47.9173 67.7026 45.4866 67.236C42.2051 66.6061 41.8377 65.8301 41.8359 65.8301V61.8342C42.9092 62.3369 44.1224 62.5897 44.7264 62.7152C47.3215 63.2547 50.837 63.5399 54.8926 63.5399C56.8467 63.5399 58.6977 63.4722 60.3941 63.3385C60.9587 63.2941 61.3803 62.8004 61.3359 62.2359C61.2914 61.6714 60.7964 61.2496 60.2332 61.2942C58.5901 61.4235 56.7934 61.4891 54.8926 61.4891C51.1699 61.4891 47.9173 61.2425 45.4866 60.7759C42.2051 60.1461 41.8377 59.3701 41.8359 59.3701V55.3742C42.9092 55.877 44.1224 56.1297 44.7264 56.2553C47.3215 56.7947 50.837 57.0799 54.8926 57.0799C58.9482 57.0799 62.4637 56.7947 65.0587 56.2553C65.6626 56.1297 66.876 55.877 67.9492 55.3742V59.3634C67.9282 59.4072 67.5505 60.0746 64.8365 60.6659C64.2832 60.7865 63.9324 61.3329 64.053 61.8862C64.1711 62.4434 64.734 62.7918 65.2732 62.6697C65.8343 62.5475 66.9452 62.3046 67.9492 61.835V65.8234C67.928 65.8675 67.5013 66.621 64.2986 67.236Z" fill="#ffffff"/>
<path d="M46.0742 19.209V8.4082C46.0742 6.7874 44.7556 5.46875 43.1348 5.46875H20.5078C19.9414 5.46875 19.4824 5.92771 19.4824 6.49414C19.4824 7.06057 19.9414 7.51953 20.5078 7.51953H43.1348C43.6248 7.51953 44.0234 7.9182 44.0234 8.4082V19.209C44.0234 19.699 43.6248 20.0977 43.1348 20.0977H9.77539C9.28539 20.0977 8.88672 19.699 8.88672 19.209V8.4082C8.88672 7.9182 9.28539 7.51953 9.77539 7.51953H15.7227C16.2891 7.51953 16.748 7.06057 16.748 6.49414C16.748 5.92771 16.2891 5.46875 15.7227 5.46875H9.77539C8.15459 5.46875 6.83594 6.7874 6.83594 8.4082V19.209C6.83594 20.8298 8.15459 22.1484 9.77539 22.1484H43.1348C44.7556 22.1484 46.0742 20.8298 46.0742 19.209Z" fill="#ffffff"/>
<path d="M21.5332 50.3125H14.1504C13.584 50.3125 13.125 50.7715 13.125 51.3379C13.125 51.9043 13.584 52.3633 14.1504 52.3633H21.5332C22.0996 52.3633 22.5586 51.9043 22.5586 51.3379C22.5586 50.7715 22.0996 50.3125 21.5332 50.3125Z" fill="#ffffff"/>
<path d="M14.834 39.5117H16.8164V41.4941C16.8164 42.0606 17.2754 42.5195 17.8418 42.5195C18.4082 42.5195 18.8672 42.0606 18.8672 41.4941V39.5117H20.8496C21.416 39.5117 21.875 39.0528 21.875 38.4863C21.875 37.9199 21.416 37.4609 20.8496 37.4609H18.8672V35.4785C18.8672 34.9121 18.4082 34.4531 17.8418 34.4531C17.2754 34.4531 16.8164 34.9121 16.8164 35.4785V37.4609H14.834C14.2676 37.4609 13.8086 37.9199 13.8086 38.4863C13.8086 39.0528 14.2676 39.5117 14.834 39.5117Z" fill="#ffffff"/>
<path d="M37.8519 35.6342C37.4513 35.2339 36.8022 35.2339 36.4017 35.6342L34.9999 37.036L33.5982 35.6342C33.1976 35.2339 32.5484 35.2339 32.148 35.6342C31.7475 36.0348 31.7475 36.6839 32.148 37.0844L33.5498 38.4862L32.148 39.8879C31.7475 40.2885 31.7475 40.9377 32.148 41.3381C32.5486 41.7384 33.1976 41.7384 33.5982 41.3381L34.9999 39.9363L36.4017 41.3381C36.8023 41.7384 37.4513 41.7384 37.8519 41.3381C38.2523 40.9375 38.2523 40.2884 37.8519 39.8879L36.4501 38.4862L37.8519 37.0844C38.2523 36.6838 38.2523 36.0347 37.8519 35.6342Z" fill="#ffffff"/>
<path d="M32.6958 54.7079C32.9581 54.7079 33.2206 54.6078 33.4209 54.4076L38.0694 49.7592C38.4698 49.3586 38.4698 48.7095 38.0694 48.309C37.6688 47.9087 37.0196 47.9087 36.6192 48.309L31.9707 52.9575C31.5703 53.358 31.5703 54.0072 31.9707 54.4076C32.171 54.6078 32.4335 54.7079 32.6958 54.7079Z" fill="#ffffff"/>
<path d="M33.0176 49.7656C33.5839 49.7656 34.043 49.3065 34.043 48.7402C34.043 48.1739 33.5839 47.7148 33.0176 47.7148C32.4513 47.7148 31.9922 48.1739 31.9922 48.7402C31.9922 49.3065 32.4513 49.7656 33.0176 49.7656Z" fill="#ffffff"/>
<path d="M37.1191 54.9609C37.6854 54.9609 38.1445 54.5019 38.1445 53.9355C38.1445 53.3692 37.6854 52.9102 37.1191 52.9102C36.5528 52.9102 36.0938 53.3692 36.0938 53.9355C36.0938 54.5019 36.5528 54.9609 37.1191 54.9609Z" fill="#ffffff"/>
<path d="M39.7168 18.1836C41.036 18.1836 42.1094 17.1102 42.1094 15.791V11.8262C42.1094 10.507 41.036 9.43359 39.7168 9.43359H37.8027C36.4835 9.43359 35.4102 10.507 35.4102 11.8262V15.791C35.4102 17.1102 36.4835 18.1836 37.8027 18.1836H39.7168ZM37.4609 15.791V11.8262C37.4609 11.6376 37.6142 11.4844 37.8027 11.4844H39.7168C39.9053 11.4844 40.0586 11.6376 40.0586 11.8262V15.791C40.0586 15.9796 39.9053 16.1328 39.7168 16.1328H37.8027C37.6142 16.1328 37.4609 15.9796 37.4609 15.791Z" fill="#ffffff"/>
</svg>
