<svg width="70" height="70" viewBox="0 0 70 70" fill="none" xmlns="http://www.w3.org/2000/svg">
<g clip-path="url(#clip0)">
<path d="M66.257 6.7733C66.257 5.63498 65.331 4.70898 64.1927 4.70898H5.80748C4.66916 4.70898 3.74316 5.63484 3.74316 6.7733V38.6437C3.74316 39.7572 4.66916 40.6631 5.80748 40.6631H64.1928C65.3311 40.6631 66.2573 39.7572 66.2573 38.6437L66.257 6.7733ZM64.2061 6.7733L64.2062 38.6107C64.1998 38.6124 5.80584 38.6139 5.79395 38.6107C5.80133 5.33242 5.77918 6.76004 5.80748 6.76004C66.3582 6.76687 64.2061 6.74555 64.2061 6.7733Z" fill="#ffffff"/>
<path d="M34.6245 45.917C32.979 45.917 31.6404 47.2557 31.6404 48.901C31.6404 50.5466 32.9791 51.8852 34.6245 51.8852C36.27 51.8852 37.6087 50.5464 37.6087 48.901C37.6088 47.2556 36.2701 45.917 34.6245 45.917ZM34.6247 49.8344C34.1101 49.8344 33.6914 49.4158 33.6914 48.9012C33.6914 48.3865 34.1101 47.968 34.6247 47.968C35.1393 47.968 35.5579 48.3867 35.5579 48.9012C35.5579 49.4156 35.1394 49.8344 34.6247 49.8344Z" fill="#ffffff"/>
<path d="M22.6979 9.03223H10.067C8.99394 9.03223 8.12085 9.90531 8.12085 10.9784C8.12085 13.4436 8.12085 27.701 8.12085 30.6241C8.12085 31.6975 8.99394 32.5704 10.067 32.5704C14.7425 32.5704 18.3512 32.5704 22.6978 32.5704C23.7709 32.5704 24.6441 31.6973 24.6441 30.6241C24.6441 27.6997 24.6441 13.4425 24.6441 10.9784C24.6443 9.90531 23.7712 9.03223 22.6979 9.03223ZM14.262 30.5195H10.1718V28.4657C10.8098 28.4678 13.6239 28.4766 14.262 28.4787V30.5195ZM13.0352 26.4148V23.5507C13.0352 23.1828 13.3345 22.8833 13.7023 22.8833H19.0626C19.4305 22.8833 19.7298 23.1826 19.7298 23.5507V26.4148H15.2874H13.0352ZM22.5932 30.5196H16.3129V30.5195V28.4787C21.0926 28.4688 22.2902 28.4664 22.5374 28.4658C22.5396 28.4658 22.5419 28.4658 22.5447 28.4658C22.5456 28.4658 22.5462 28.4658 22.5473 28.4658C22.5486 28.4658 22.5499 28.4658 22.5512 28.4658C22.5562 28.4658 22.5626 28.4658 22.5689 28.4658C22.5715 28.4658 22.5733 28.4658 22.576 28.4658C22.5767 28.4658 22.5775 28.4658 22.5782 28.4658C22.5789 28.4658 22.5797 28.4658 22.5804 28.4658C22.5812 28.4658 22.582 28.4658 22.5828 28.4658C22.5846 28.4658 22.5867 28.4658 22.5879 28.4658C22.5897 28.4658 22.5912 28.4658 22.5931 28.4658H22.5932V30.5196ZM22.5934 26.4148H21.781V23.5507C21.781 22.0518 20.5616 20.8324 19.0629 20.8324H13.7025C12.2038 20.8324 10.9846 22.052 10.9846 23.5507V26.4148H10.1722V11.083H22.5935V26.4148H22.5934Z" fill="#ffffff"/>
<path d="M16.3823 12.584C14.2558 12.584 12.5258 14.314 12.5258 16.4405C12.5259 18.5672 14.2559 20.2972 16.3823 20.2972C18.5088 20.2972 20.2389 18.5672 20.2389 16.4405C20.2389 14.314 18.5088 12.584 16.3823 12.584ZM16.3823 18.2463C15.3867 18.2463 14.5767 17.4363 14.5767 16.4405C14.5767 15.445 15.3867 14.6349 16.3823 14.6349C17.3779 14.6349 18.188 15.4448 18.188 16.4405C18.188 17.4361 17.378 18.2463 16.3823 18.2463Z" fill="#ffffff"/>
<path d="M41.2758 9.03223H28.6449C27.5718 9.03223 26.6987 9.90531 26.6987 10.9784C26.6987 13.4436 26.6987 27.701 26.6987 30.6241C26.6987 31.6975 27.5718 32.5704 28.6449 32.5704C33.3204 32.5704 36.9293 32.5704 41.2758 32.5704C42.3489 32.5704 43.222 31.6973 43.222 30.6241V27.4404V10.9784C43.222 9.90531 42.3489 9.03223 41.2758 9.03223ZM41.1711 11.083V26.4148H40.3587V23.5507C40.3587 22.0518 39.1393 20.8324 37.6406 20.8324H32.2804C30.7816 20.8324 29.5623 22.052 29.5623 23.5507V26.4148H28.7499V11.083H41.1711ZM38.3078 23.5507V26.4148C37.0109 26.4148 32.9644 26.4148 31.6131 26.4148V23.5507C31.6131 23.1828 31.9124 22.8833 32.2803 22.8833H37.6405C38.0084 22.8833 38.3078 23.1828 38.3078 23.5507ZM28.7496 30.5195V28.4657C29.3877 28.4678 32.2018 28.4766 32.8399 28.4787V30.5195H28.7496ZM41.1714 30.5196H34.8908V30.5195V28.4787C39.6706 28.4688 40.8681 28.4664 41.1153 28.4658C41.1176 28.4658 41.1199 28.4658 41.1227 28.4658C41.1236 28.4658 41.1242 28.4658 41.1253 28.4658C41.1266 28.4658 41.1279 28.4658 41.1292 28.4658C41.1342 28.4658 41.1405 28.4658 41.1467 28.4658C41.1493 28.4658 41.1511 28.4658 41.1539 28.4658C41.1545 28.4658 41.1554 28.4658 41.1559 28.4658C41.1566 28.4658 41.1574 28.4658 41.1582 28.4658C41.1591 28.4658 41.1599 28.4658 41.1607 28.4658C41.1625 28.4658 41.1645 28.4658 41.1657 28.4658C41.1677 28.4658 41.1692 28.4658 41.1711 28.4658H41.1712C41.1712 28.4658 41.1712 28.4658 41.1714 28.4658V30.5196Z" fill="#ffffff"/>
<path d="M34.9602 12.584C32.8337 12.584 31.1036 14.314 31.1036 16.4405C31.1036 18.5672 32.8337 20.2972 34.9602 20.2972C37.0866 20.2972 38.8168 18.5672 38.8168 16.4405C38.8168 14.314 37.0867 12.584 34.9602 12.584ZM34.9602 18.2463C33.9646 18.2463 33.1546 17.4363 33.1546 16.4405C33.1546 15.445 33.9645 14.6349 34.9602 14.6349C35.9558 14.6349 36.7658 15.4448 36.7658 16.4405C36.7658 17.4361 35.9559 18.2463 34.9602 18.2463Z" fill="#ffffff"/>
<path d="M53.5381 12.584C51.4117 12.584 49.6815 14.314 49.6815 16.4405C49.6815 18.5672 51.4116 20.2972 53.5381 20.2972C55.6646 20.2972 57.3946 18.5672 57.3946 16.4405C57.3945 14.314 55.6646 12.584 53.5381 12.584ZM53.5381 18.2463C52.5425 18.2463 51.7324 17.4363 51.7324 16.4405C51.7324 15.445 52.5424 14.6349 53.5381 14.6349C54.5338 14.6349 55.3437 15.4448 55.3437 16.4405C55.3436 17.4361 54.5337 18.2463 53.5381 18.2463Z" fill="#ffffff"/>
<path d="M40.4992 34.376H29.4215C28.8552 34.376 28.3961 34.8349 28.3961 35.4014C28.3961 35.9678 28.8552 36.4268 29.4215 36.4268H40.4992C41.0656 36.4268 41.5245 35.9678 41.5245 35.4014C41.5245 34.8349 41.0656 34.376 40.4992 34.376Z" fill="#ffffff"/>
<path d="M21.9215 34.376H10.8437C10.2775 34.376 9.81836 34.8349 9.81836 35.4014C9.81836 35.9678 10.2775 36.4268 10.8437 36.4268H21.9215C22.4878 36.4268 22.9469 35.9678 22.9469 35.4014C22.9469 34.8349 22.4878 34.376 21.9215 34.376Z" fill="#ffffff"/>
<path d="M59.0769 34.376H47.9993C47.4328 34.376 46.9739 34.8349 46.9739 35.4014C46.9739 35.9678 47.4328 36.4268 47.9993 36.4268H59.077C59.6435 36.4268 60.1024 35.9678 60.1024 35.4014C60.1026 34.8349 59.6433 34.376 59.0769 34.376Z" fill="#ffffff"/>
<path d="M59.8535 9.03223H55.9308C55.3644 9.03223 54.9054 9.49119 54.9054 10.0576C54.9054 10.624 55.3644 11.083 55.9308 11.083H59.7488V26.4148H58.9366V23.5507C58.9366 22.0518 57.7172 20.8324 56.2185 20.8324H50.8581C49.3593 20.8324 48.14 22.052 48.14 23.5507V26.4148H47.3278V11.083H51.1458C51.7122 11.083 52.1712 10.624 52.1712 10.0576C52.1712 9.49119 51.7122 9.03223 51.1458 9.03223H47.2232C46.1501 9.03223 45.277 9.90531 45.277 10.9784C45.277 13.0244 45.2769 28.5562 45.2769 30.6241C45.2769 31.6975 46.1499 32.5704 47.2232 32.5704C51.8987 32.5704 55.5074 32.5704 59.8539 32.5704C60.9271 32.5704 61.8001 31.6973 61.8001 30.6241C61.8001 27.6997 61.8001 13.4425 61.8001 10.9784C61.7997 9.90531 60.9266 9.03223 59.8535 9.03223ZM50.8581 22.8833H56.2185C56.5862 22.8833 56.8856 23.1826 56.8856 23.5507V26.4148C55.5887 26.4148 51.5424 26.4148 50.1908 26.4148V23.5507C50.1908 23.1828 50.4902 22.8833 50.8581 22.8833ZM51.4177 30.5195H47.3274V28.4657C47.9643 28.4678 50.7809 28.4766 51.4177 28.4787V30.5195ZM59.7489 30.5196H53.4685V30.5195V28.4787C58.247 28.4688 59.4452 28.4664 59.6928 28.4658C59.6951 28.4658 59.6975 28.4658 59.7004 28.4658C59.7014 28.4658 59.7019 28.4658 59.7029 28.4658C59.7042 28.4658 59.7055 28.4658 59.7068 28.4658C59.7116 28.4658 59.718 28.4658 59.7243 28.4658C59.7269 28.4658 59.7287 28.4658 59.7316 28.4658C59.7323 28.4658 59.7331 28.4658 59.7338 28.4658C59.7345 28.4658 59.7353 28.4658 59.736 28.4658C59.7368 28.4658 59.7376 28.4658 59.7384 28.4658C59.7402 28.4658 59.7421 28.4658 59.7435 28.4658C59.7453 28.4658 59.7468 28.4658 59.7487 28.4658C59.7488 28.4658 59.7488 28.4658 59.7489 28.4658V30.5196Z" fill="#ffffff"/>
<path d="M68.9746 33.6323C69.541 33.6323 70 33.1733 70 32.6069V5.03854C70 2.79279 68.173 0.96582 65.9273 0.96582H4.07285C1.82711 0.965684 0 2.79279 0 5.03854V51.442C0 53.6877 1.82711 55.5148 4.07285 55.5148H8.451C9.01729 55.5148 9.47639 55.0559 9.47639 54.4894C9.47639 53.923 9.01729 53.464 8.451 53.464H4.07285C2.95805 53.464 2.05092 52.557 2.05092 51.4421V44.4059H67.9491V51.4421C67.9491 52.5569 67.0421 53.464 65.9273 53.464C63.2749 53.464 15.8803 53.464 13.2364 53.464C12.6701 53.464 12.211 53.923 12.211 54.4894C12.211 55.0559 12.6701 55.5148 13.2364 55.5148H26.7635L26.2474 63.2398H25.1766C23.5792 63.2398 22.2797 64.5395 22.2797 66.1368C22.2797 67.7342 23.5793 69.0337 25.1766 69.0337H44.8237C46.4211 69.0337 47.7206 67.7341 47.7206 66.1368C47.7206 64.5394 46.4209 63.2398 44.8237 63.2398H43.7529L43.2368 55.5148H65.9276C68.1733 55.5148 70.0003 53.6877 70.0003 51.442V37.3923C70.0003 36.8259 69.5413 36.367 68.9749 36.367C68.4085 36.367 67.9495 36.8259 67.9495 37.3923V42.3547H2.05092V5.03854C2.05092 3.92373 2.95791 3.01674 4.07285 3.01674H65.9273C67.0421 3.01674 67.9491 3.92373 67.9491 5.03854V32.607C67.9491 33.1733 68.4081 33.6323 68.9746 33.6323ZM28.8189 55.5147H41.1809L41.697 63.2397H28.3027L28.8189 55.5147ZM44.8235 65.2906C45.29 65.2906 45.6695 65.67 45.6695 66.1366C45.6695 66.6033 45.2901 66.9827 44.8235 66.9827H25.1765C24.71 66.9827 24.3305 66.6033 24.3305 66.1366C24.3305 65.67 24.71 65.2906 25.1765 65.2906C27.8512 65.2906 42.7075 65.2906 44.8235 65.2906Z" fill="#ffffff"/>
</g>
<defs>
<clipPath id="clip0">
<rect width="70" height="70" fill="white"/>
</clipPath>
</defs>
</svg>
