<svg width="70" height="70" viewBox="0 0 70 70" fill="none" xmlns="http://www.w3.org/2000/svg">
<path d="M68.9746 44.3691C68.4082 44.3691 67.9492 44.8281 67.9492 45.3945V62.8217C67.9492 64.1409 66.8758 65.2142 65.5566 65.2142H22.4742C21.9078 65.2142 21.4489 65.6732 21.4489 66.2396C21.4489 66.8061 21.9078 67.265 22.4742 67.265H65.5566C68.0068 67.265 70 65.2718 70 62.8217V45.3945C70 44.8282 69.541 44.3691 68.9746 44.3691Z" fill="#ffffff"/>
<path d="M65.5566 28.4375H63.1641V20.7282C63.1641 19.5125 62.6914 18.3688 61.8334 17.5079L57.0817 12.7422C56.6815 12.3409 56.0324 12.3404 55.6315 12.7399C55.2305 13.1398 55.2297 13.789 55.6294 14.1899L59.6684 18.241H49.8611C48.6715 18.241 47.7038 17.2688 47.7038 16.0738V6.24053L52.1924 10.7427C52.5924 11.1438 53.2417 11.1446 53.6424 10.745C54.0436 10.3451 54.0444 9.69582 53.6447 9.29496L48.4392 4.07381C47.5781 3.21002 46.4326 2.73438 45.2134 2.73438H23.5066C20.3454 2.73438 17.7734 5.30811 17.7734 8.47164V8.47656H4.44336C1.99322 8.47656 0 10.4698 0 12.9199V18.7044C0 19.2708 0.458965 19.7297 1.02539 19.7297C1.59182 19.7297 2.05078 19.2708 2.05078 18.7044V12.9199C2.05078 11.6007 3.12416 10.5273 4.44336 10.5273H17.7734V28.4375H11.2793C8.82916 28.4375 6.83594 30.4307 6.83594 32.8809V62.8223C6.83594 64.1415 5.76256 65.2148 4.44336 65.2148C3.12416 65.2148 2.05078 64.1415 2.05078 62.8223V23.4895C2.05078 22.9231 1.59182 22.4641 1.02539 22.4641C0.458965 22.4641 0 22.9231 0 23.4895V62.8223C0 65.2724 1.99322 67.2656 4.44336 67.2656H17.6891C18.2555 67.2656 18.7145 66.8067 18.7145 66.2402C18.7145 65.6738 18.2555 65.2148 17.6891 65.2148H8.18467C8.62818 64.5236 8.88672 63.7029 8.88672 62.8223V32.8809C8.88672 31.5617 9.9601 30.4883 11.2793 30.4883H65.5566C66.8758 30.4883 67.9492 31.5617 67.9492 32.8809V40.489C67.9492 41.0554 68.4082 41.5144 68.9746 41.5144C69.541 41.5144 70 41.0554 70 40.489V32.8809C70 30.4307 68.0068 28.4375 65.5566 28.4375ZM19.8242 8.47164C19.8242 6.43891 21.4762 4.78516 23.5067 4.78516H45.2136C45.3626 4.78516 45.5092 4.80006 45.653 4.82549V16.0739C45.653 18.3997 47.5408 20.2919 49.8611 20.2919H61.0736C61.0985 20.4348 61.1134 20.5803 61.1134 20.7282V28.4375H19.8242V8.47164Z" fill="#ffffff"/>
</svg>
