<svg width="70" height="70" viewBox="0 0 70 70" fill="none" xmlns="http://www.w3.org/2000/svg">
<g clip-path="url(#clip0)">
<path d="M50.7817 31.4199C42.7337 31.4199 36.1863 37.9674 36.1863 46.0153C36.1863 54.0633 42.7337 60.6107 50.7817 60.6107C58.8296 60.6107 65.3771 54.0633 65.3771 46.0153C65.3771 37.9674 58.8296 31.4199 50.7817 31.4199ZM50.7817 58.5599C43.8645 58.5599 38.2371 52.9325 38.2371 46.0153C38.2371 39.0982 43.8645 33.4707 50.7817 33.4707C57.6988 33.4707 63.3263 39.0982 63.3263 46.0153C63.3263 52.9325 57.6988 58.5599 50.7817 58.5599Z" fill="#ffffff"/>
<path d="M50.7817 37.6464C51.3482 37.6464 51.8071 37.1874 51.8071 36.621V36.1514C51.8071 35.5849 51.3482 35.126 50.7817 35.126C50.2153 35.126 49.7563 35.5849 49.7563 36.1514V36.621C49.7563 37.1874 50.2154 37.6464 50.7817 37.6464Z" fill="#ffffff"/>
<path d="M57.031 38.3149L56.6988 38.6471C56.2983 39.0477 56.2983 39.6968 56.6988 40.0973C56.8991 40.2974 57.1616 40.3975 57.4239 40.3975C57.6863 40.3975 57.9488 40.2974 58.1491 40.0973L58.4813 39.765C58.8818 39.3645 58.8818 38.7153 58.4813 38.3149C58.0807 37.9146 57.4316 37.9146 57.031 38.3149Z" fill="#ffffff"/>
<path d="M59.1501 46.0146C59.1501 46.5811 59.6091 47.04 60.1755 47.04H60.6453C61.2117 47.04 61.6707 46.5811 61.6707 46.0146C61.6707 45.4482 61.2117 44.9893 60.6453 44.9893H60.1755C59.6092 44.9893 59.1501 45.4482 59.1501 46.0146Z" fill="#ffffff"/>
<path d="M41.388 44.9893H40.9182C40.3518 44.9893 39.8928 45.4482 39.8928 46.0146C39.8928 46.5811 40.3518 47.04 40.9182 47.04H41.388C41.9544 47.04 42.4134 46.5811 42.4134 46.0146C42.4134 45.4482 41.9544 44.9893 41.388 44.9893Z" fill="#ffffff"/>
<path d="M58.1489 51.9321C57.7484 51.5317 57.0991 51.5317 56.6988 51.9325C56.2985 52.333 56.2986 52.9823 56.6992 53.3826L57.0314 53.7147C57.2316 53.9148 57.494 54.0147 57.7563 54.0147C58.0188 54.0147 58.2813 53.9147 58.4816 53.7142C58.8819 53.3138 58.8818 52.6645 58.4812 52.2642L58.1489 51.9321Z" fill="#ffffff"/>
<path d="M50.7817 54.3838C50.2153 54.3838 49.7563 54.8428 49.7563 55.4092V55.8789C49.7563 56.4454 50.2153 56.9043 50.7817 56.9043C51.3482 56.9043 51.8071 56.4454 51.8071 55.8789V55.4092C51.8071 54.8428 51.3482 54.3838 50.7817 54.3838Z" fill="#ffffff"/>
<path d="M43.4142 51.9329L43.0821 52.265C42.6816 52.6656 42.6816 53.3148 43.0821 53.7152C43.2824 53.9154 43.5449 54.0154 43.8072 54.0154C44.0696 54.0154 44.3321 53.9154 44.5324 53.7152L44.8645 53.3831C45.2649 52.9825 45.2649 52.3334 44.8645 51.9329C44.4639 51.5328 43.8148 51.5328 43.4142 51.9329Z" fill="#ffffff"/>
<path d="M43.4143 40.098C43.6146 40.2985 43.8771 40.3985 44.1396 40.3985C44.402 40.3985 44.6643 40.2985 44.8645 40.0984C45.2651 39.698 45.2652 39.0487 44.8649 38.6484L44.5328 38.3162C44.1322 37.9153 43.4829 37.9157 43.0828 38.3158C42.6822 38.7162 42.682 39.3655 43.0824 39.7658L43.4143 40.098Z" fill="#ffffff"/>
<path d="M53.5765 44.99H51.8071V40.6035C51.8071 40.0371 51.3482 39.5781 50.7817 39.5781C50.2153 39.5781 49.7563 40.0371 49.7563 40.6035V46.0154C49.7563 46.5818 50.2153 47.0408 50.7817 47.0408H53.5765C54.143 47.0408 54.6019 46.5818 54.6019 46.0154C54.6019 45.449 54.1428 44.99 53.5765 44.99Z" fill="#ffffff"/>
<path d="M66.3799 34.7878C66.0485 34.3285 65.408 34.2248 64.9483 34.5558C64.4891 34.8871 64.3852 35.5279 64.7163 35.9874C66.8314 38.9206 67.9492 42.3882 67.9492 46.0153C67.9492 55.4815 60.2478 63.1829 50.7817 63.1829C41.3155 63.1829 33.6142 55.4815 33.6142 46.0153C33.6142 36.5492 41.3155 28.8479 50.7817 28.8479C54.9557 28.8479 58.9796 30.3647 62.112 33.1189C62.5372 33.4924 63.1851 33.4513 63.5591 33.0258C63.9329 32.6006 63.8915 31.9526 63.466 31.5787C61.0257 29.433 58.1022 27.959 54.9753 27.2604L57.4217 16.7517C58.049 14.0571 56.0052 11.4771 53.2342 11.4771H39.7133V8.75041C39.7133 6.55322 37.9257 4.76562 35.7285 4.76562H21.807C19.6098 4.76562 17.8222 6.55308 17.8222 8.75041V11.477H11.6305C11.0641 11.477 10.6052 11.9359 10.6052 12.5024C10.6052 13.0688 11.0641 13.5278 11.6305 13.5278H53.2343C54.6812 13.5278 55.7531 14.8748 55.4245 16.2866L52.9493 26.9193C52.233 26.8381 51.5095 26.7969 50.7819 26.7969C47.2187 26.7969 43.8796 27.7728 41.0158 29.4696H34.1501V28.2805C34.1501 26.8765 33.0079 25.7344 31.604 25.7344H25.9318C24.5279 25.7344 23.3857 26.8765 23.3857 28.2805V29.4696H7.12774C5.97848 29.4696 4.99698 28.6828 4.73858 27.573L2.111 16.2865C1.78301 14.8774 2.85174 13.5278 4.30136 13.5278H7.53064C8.09707 13.5278 8.55603 13.0688 8.55603 12.5024C8.55603 11.9359 8.09707 11.477 7.53064 11.477H4.30136C1.52461 11.477 -0.512215 14.063 0.113681 16.7514L2.74127 28.0378C2.89904 28.7154 3.20228 29.3249 3.61271 29.838V43.2506C3.61271 45.9666 5.82249 48.1764 8.53853 48.1764H14.9182C15.4846 48.1764 15.9436 47.7174 15.9436 47.151C15.9436 46.5846 15.4846 46.1256 14.9182 46.1256H8.53867C6.95328 46.1256 5.66362 44.8358 5.66362 43.2506V31.2786C6.12422 31.4355 6.61709 31.5206 7.12787 31.5206H23.3857V32.6978C23.3857 34.1018 24.528 35.2439 25.9318 35.2439H31.604C33.0079 35.2439 34.1501 34.1018 34.1501 32.6978V31.5206H38.1764C34.0056 35.1523 31.5325 40.4234 31.5649 46.1258H19.0183C18.4518 46.1258 17.9929 46.5847 17.9929 47.1511C17.9929 47.7176 18.4518 48.1765 19.0183 48.1765H31.6857C32.7632 57.7598 40.9156 65.2338 50.7819 65.2338C61.3789 65.2338 70.0001 56.6123 70.0001 46.0154C70.0001 41.9549 68.7481 38.0725 66.3799 34.7878ZM19.873 8.75041C19.873 7.68401 20.7406 6.8164 21.807 6.8164H35.7284C36.7949 6.8164 37.6624 7.68401 37.6624 8.75041V11.477H19.873V8.75041ZM32.0993 32.6977C32.0993 32.9709 31.8771 33.193 31.604 33.193H25.9318C25.6587 33.193 25.4365 32.9709 25.4365 32.6977V28.2803C25.4365 28.0072 25.6587 27.785 25.9318 27.785H31.604C31.8771 27.785 32.0993 28.0072 32.0993 28.2803V32.6977Z" fill="#ffffff"/>
</g>
<defs>
<clipPath id="clip0">
<rect width="70" height="70" fill="white"/>
</clipPath>
</defs>
</svg>
