<svg width="18" height="18" viewBox="0 0 18 18" fill="none" xmlns="http://www.w3.org/2000/svg">
<g clip-path="url(#clip0)">
<path d="M0.463783 13.2816L2.70089 11.044C3.29777 10.4471 4.34061 10.4461 4.93848 11.044L5.31152 11.417L0.836687 15.8916L0.463783 15.5187C-0.155636 14.8993 -0.153562 13.8979 0.463783 13.2816Z" fill="#21A0DA"/>
<path d="M6.07795 12.1419C6.54869 12.5066 7.22025 12.4921 7.65038 12.061L12.0736 7.63468C12.5047 7.20356 12.5193 6.53151 12.1546 6.06193L16.6191 1.59766C18.5397 3.8364 18.4646 7.20974 16.3449 9.32949L9.34519 16.3322C7.31106 18.3663 3.97913 18.6361 1.61322 16.6064L6.07795 12.1419Z" fill="#21A0DA"/>
<path d="M11.0565 2.68563L13.2936 0.448044C13.8905 -0.148838 14.9334 -0.149858 15.5312 0.448044L15.9043 0.821086L11.4294 5.29566L11.0565 4.92272C10.4372 4.30334 10.4392 3.30195 11.0565 2.68563Z" fill="#21A0DA"/>
</g>
<defs>
<clipPath id="clip0">
<rect width="18" height="18" fill="white" transform="matrix(-1 0 0 1 18 0)"/>
</clipPath>
</defs>
</svg>
