<svg width="60" height="60" viewBox="0 0 60 60" fill="none" xmlns="http://www.w3.org/2000/svg">
<path d="M22.4176 38.9758C21.934 39.3467 21.7991 40.0177 22.102 40.5467L23.7614 43.4029L23.7692 43.4156C23.914 43.6633 24.1412 43.8518 24.4115 43.9479C24.71 44.0491 25.0378 44.0192 25.3136 43.8667L26.7984 43.184C27.0554 43.3548 27.3224 43.5096 27.5982 43.6472L27.7552 45.3724L27.7712 45.4404C27.8895 45.9866 28.3699 46.3785 28.9287 46.3857H32.2498C32.8612 46.3862 33.3719 45.9219 33.4294 45.3133L33.5803 43.65C33.86 43.514 34.1309 43.3598 34.3901 43.1884L35.8942 43.8805L35.944 43.9015C36.4901 44.1154 37.1114 43.9059 37.416 43.4046L39.0749 40.549C39.3861 40.0188 39.2484 39.34 38.7565 38.9724L37.4989 38.0145C37.5138 37.8603 37.5243 37.6972 37.5243 37.5192C37.5243 37.3484 37.5149 37.1909 37.5006 37.0422L38.8499 36.0826L38.8714 36.0671C39.3667 35.7 39.5038 35.0179 39.1893 34.4878L37.4873 31.6256C37.1844 31.0745 36.4929 30.8721 35.9401 31.1729L34.4576 31.855C34.2005 31.6842 33.933 31.5294 33.6571 31.3917L33.5002 29.6666L33.4841 29.5986C33.3653 29.0524 32.8855 28.6605 32.3266 28.6533H29.0061C28.3948 28.6522 27.8834 29.1171 27.826 29.7257L27.6756 31.389C27.3959 31.5244 27.125 31.6792 26.8658 31.8505L25.3611 31.1585L25.3153 31.1391C24.7675 30.9202 24.1417 31.1308 23.8383 31.6366L22.1849 34.4828C21.8682 35.0157 22.0064 35.7017 22.5044 36.0704L23.8703 37.0422C23.8565 37.1909 23.8466 37.3484 23.8466 37.5192C23.8466 37.6845 23.856 37.8387 23.8698 37.9846L22.4569 38.947L22.4176 38.9758ZM25.8929 38.1975C25.8548 37.9736 25.8332 37.747 25.8277 37.5203C25.8332 37.2915 25.8553 37.0632 25.8935 36.8376L25.9952 36.1229L24.2462 34.8792L25.1865 33.2607L27.1367 34.1578L27.7099 33.6891C28.0708 33.4094 28.4694 33.1811 28.8934 33.0114L29.5434 32.7333L29.733 30.6361H31.5992L31.7893 32.7333L32.4394 33.0114C32.8744 33.1965 33.2846 33.4342 33.6621 33.7189L34.227 34.1434L36.1518 33.2579L37.1186 34.8842L35.3752 36.1235L35.4774 36.8388C35.5642 37.2887 35.5642 37.7514 35.4774 38.2013L35.3785 38.8906L37.0197 40.1416L36.0678 41.7805L34.1182 40.8834L33.5444 41.3521C33.1834 41.6318 32.7849 41.8596 32.3609 42.0298L31.7114 42.3079L31.5212 44.4051H29.6562L29.4655 42.3079L28.8165 42.0298C28.3815 41.8441 27.9702 41.6064 27.5927 41.3212L27.0283 40.8977L25.1102 41.7805L24.176 40.1736L25.3866 39.3494L25.9935 38.9105L25.8929 38.1975Z" fill="#21A0DA"/>
<path d="M30.6468 41.7609C32.9888 41.7609 34.8871 39.8622 34.8871 37.5201C34.8865 35.1786 32.9883 33.2798 30.6462 33.2798C28.3041 33.2798 26.4059 35.1786 26.4059 37.5206C26.3937 38.6488 26.8365 39.735 27.6341 40.5327C28.4323 41.3309 29.518 41.7737 30.6468 41.7609ZM30.6468 35.2615C31.8944 35.2615 32.9059 36.273 32.9059 37.5212C32.9054 38.7688 31.8938 39.7804 30.6462 39.7804C29.398 39.7798 28.3865 38.7682 28.387 37.5206C28.3804 36.9192 28.6164 36.341 29.0415 35.9159C29.4671 35.4909 30.0453 35.2548 30.6468 35.2615Z" fill="#21A0DA"/>
<path d="M44.1509 36.0908C43.6037 36.0908 43.1604 36.5347 43.1604 37.0814C43.1604 40.1349 41.8409 43.4244 39.6298 45.8804C37.2114 48.6067 33.7378 50.1611 30.0934 50.1483C25.9117 50.1483 22.4945 48.0379 20.3503 45.7599L23.2672 45.8561C23.8117 45.8699 24.265 45.4426 24.2827 44.8987C24.3009 44.3548 23.8764 43.8982 23.333 43.8761L18.5311 43.7185C18.1707 43.5897 17.7683 43.6804 17.4974 43.9518C17.2271 44.2226 17.137 44.6251 17.2664 44.9855L17.4244 49.7852C17.4466 50.3285 17.9031 50.7525 18.4471 50.7348C18.9905 50.7171 19.4183 50.2639 19.4045 49.7199L19.3337 47.5686C21.8273 50.045 25.5358 52.1306 30.094 52.1306C39.0947 52.1295 45.1415 44.3487 45.1415 37.0814C45.1415 36.5347 44.6982 36.0908 44.1509 36.0908Z" fill="#21A0DA"/>
<path d="M53.3491 3.5376H6.65094C2.97944 3.54147 0.00386941 6.51703 0 10.1885V49.8239C0.00386941 53.4954 2.97944 56.4704 6.65094 56.4748H53.3491C57.0206 56.4704 59.9961 53.4954 60 49.8239V10.1885C59.9961 6.51703 57.0206 3.54147 53.3491 3.5376ZM6.65094 5.51873H53.3491C55.9266 5.52149 58.0161 7.61097 58.0189 10.1885V17.4188H1.98113V10.1885C1.9839 7.61097 4.07337 5.52149 6.65094 5.51873ZM53.3491 54.4937H6.65094C4.07337 54.4904 1.9839 52.4015 1.98113 49.8239V19.3999H58.0189V49.8239C58.0161 52.4015 55.9266 54.4904 53.3491 54.4937Z" fill="#21A0DA"/>
<path d="M16.9154 14.6597H16.9248C18.6516 14.658 20.0523 13.2617 20.0595 11.5349C20.0628 9.80468 18.6649 8.39788 16.9347 8.39014H16.9248C15.2134 8.41612 13.8386 9.8091 13.8364 11.5199C13.8337 13.2313 15.204 14.6287 16.9148 14.6591L16.9154 14.6597ZM16.1116 10.7068C16.3272 10.4912 16.6202 10.3707 16.9248 10.3713H16.9286C17.4786 10.3735 17.9507 10.7632 18.0563 11.3032C18.1619 11.8433 17.8717 12.3828 17.3626 12.5918C16.8535 12.8007 16.2681 12.621 15.9635 12.1622C15.6595 11.704 15.7214 11.0943 16.1116 10.7068Z" fill="#21A0DA"/>
<path d="M7.28328 14.6296H7.29323C9.01733 14.6269 10.4131 13.2278 10.4114 11.5037C10.4103 9.7796 9.01235 8.3833 7.28826 8.3833C5.56472 8.3833 4.16676 9.7796 4.1651 11.5037C4.164 13.2278 5.55974 14.6269 7.28328 14.6296ZM7.29323 10.3418H7.2971C7.92395 10.3567 8.4242 10.8697 8.4231 11.4965C8.42199 12.1239 7.92063 12.6352 7.29323 12.6485H7.28992C6.66252 12.6336 6.16226 12.1206 6.16337 11.4932C6.16447 10.8658 6.66639 10.3545 7.29323 10.3418Z" fill="#21A0DA"/>
<path d="M26.5474 14.6899H26.5573C28.2848 14.6894 29.686 13.292 29.6916 11.5651C29.6954 9.8344 28.2975 8.4276 26.5667 8.42041H26.5573C24.8338 8.4287 23.4403 9.82721 23.4375 11.5502C23.4353 13.2737 24.8239 14.6761 26.5474 14.6899ZM26.5573 10.4015H26.5607C27.193 10.4093 27.701 10.9245 27.6999 11.5568C27.6988 12.1892 27.1892 12.7027 26.5573 12.7088H26.5535C25.9211 12.7005 25.4131 12.1853 25.4142 11.5535C25.4153 10.9211 25.925 10.4071 26.5573 10.4015Z" fill="#21A0DA"/>
</svg>
