<svg width="24" height="24" viewBox="0 0 24 24" fill="none" xmlns="http://www.w3.org/2000/svg">
<path fill-rule="evenodd" clip-rule="evenodd" d="M19.2267 22.132V1.86313C19.2267 0.838407 18.3932 0 17.3636 0H6.63589C5.61117 0 4.77277 0.833504 4.77277 1.86313V22.1369C4.77277 23.1616 5.60627 24 6.63589 24H17.3636C18.3883 23.9951 19.2267 23.1616 19.2267 22.132ZM5.97399 4.31951H18.0206V17.9595H5.97399V4.31951ZM10.7789 20.4257H13.2157C13.5491 20.4257 13.8188 20.6954 13.8188 21.0288C13.8188 21.3622 13.5491 21.6318 13.2157 21.6318H10.7789C10.4455 21.6318 10.1759 21.3622 10.1759 21.0288C10.1759 20.6954 10.4455 20.4257 10.7789 20.4257Z" fill="#21A0DA"/>
</svg>
