<svg width="60" height="60" viewBox="0 0 60 60" fill="none" xmlns="http://www.w3.org/2000/svg">
<path d="M57.1874 37.5V46.875H44.0624V44.6063C44.0604 44.0077 43.9656 43.4131 43.7811 42.8438L44.0624 43.125L45.9374 41.25L44.9999 32.8125L46.8749 29.0625L53.0436 30.7406C54.2331 31.0674 55.2825 31.7753 56.031 32.7558C56.7795 33.7363 57.1857 34.9352 57.1874 36.1688V37.5Z" fill="#21A0DA" fill-opacity="0.4"/>
<path d="M52.5 14.0625V16.875H52.2281C52.0088 16.8768 51.7896 16.8643 51.5719 16.8375C50.6438 16.7299 49.7573 16.3923 48.9928 15.8553C48.2283 15.3183 47.6099 14.599 47.1938 13.7625L46.875 13.125L45.3188 14.6813C44.6233 15.377 43.7975 15.9289 42.8886 16.3053C41.9798 16.6817 41.0056 16.8753 40.0219 16.875H37.0125C36.6194 16.2871 36.1532 15.7516 35.625 15.2813V14.0625C35.625 11.8247 36.5139 9.67863 38.0963 8.09629C39.6786 6.51395 41.8247 5.625 44.0625 5.625C46.3003 5.625 48.4464 6.51395 50.0287 8.09629C51.6111 9.67863 52.5 11.8247 52.5 14.0625Z" fill="#21A0DA" fill-opacity="0.4"/>
<path d="M41.25 29.0625L43.125 32.8125L42.2719 40.4906C41.6034 39.8717 40.7966 39.4216 39.9188 39.1781L32.8125 36.5625V33.2062C34.2018 32.6431 35.3904 31.6765 36.225 30.4312L41.25 29.0625Z" fill="#21A0DA" fill-opacity="0.4"/>
<path d="M27.1875 33.2062V36.5625L20.0813 39.1781C19.2034 39.4216 18.3966 39.8717 17.7281 40.4906L16.875 32.8125L18.75 29.0625L23.775 30.4312C24.0472 30.8328 24.3547 31.2093 24.6938 31.5562C25.4078 32.2656 26.2554 32.8264 27.1875 33.2062Z" fill="#21A0DA" fill-opacity="0.4"/>
<path d="M24.375 14.0625V15.2812C23.8765 15.7237 23.4328 16.2241 23.0531 16.7719C22.2015 16.6126 21.3984 16.2579 20.7071 15.7357C20.0157 15.2135 19.4549 14.5381 19.0688 13.7625L18.75 13.125L17.1938 14.6812C16.4983 15.377 15.6725 15.9289 14.7636 16.3053C13.8548 16.6817 12.8806 16.8753 11.8969 16.875H7.5V14.0625C7.5 11.8247 8.38895 9.67862 9.97129 8.09629C11.5536 6.51395 13.6997 5.625 15.9375 5.625C18.1753 5.625 20.3214 6.51395 21.9037 8.09629C23.4861 9.67862 24.375 11.8247 24.375 14.0625Z" fill="#21A0DA" fill-opacity="0.4"/>
<path d="M37.0125 16.8752C36.0064 15.3715 34.5435 14.2311 32.8398 13.6221C31.136 13.0132 29.2817 12.968 27.5503 13.4933C25.819 14.0186 24.3024 15.0865 23.2242 16.5395C22.1461 17.9924 21.5635 19.7535 21.5625 21.5627V24.3752H25.9594C26.9431 24.3755 27.9173 24.182 28.8262 23.8055C29.735 23.4291 30.5608 22.8773 31.2563 22.1815L32.8125 20.6252L33.1313 21.2627C33.5474 22.0992 34.1658 22.8186 34.9303 23.3555C35.6948 23.8925 36.5813 24.2301 37.5094 24.3377C37.7271 24.3645 37.9463 24.377 38.1656 24.3752H38.4375V21.5627C38.44 19.8932 37.9438 18.2609 37.0125 16.8752Z" fill="#21A0DA" fill-opacity="0.4"/>
<path d="M43.7812 42.8438C43.4891 41.9619 42.9837 41.1659 42.3098 40.5264C41.636 39.8869 40.8147 39.4238 39.9188 39.1781L32.8125 36.5625L30.9375 40.3125L31.6687 46.875L31.875 48.75L30 50.625L28.125 48.75L28.3312 46.875L29.0625 40.3125L27.1875 36.5625L20.0813 39.1781C19.1853 39.4238 18.364 39.8869 17.6902 40.5264C17.0163 41.1659 16.5109 41.9619 16.2187 42.8438C16.0343 43.4131 15.9394 44.0077 15.9375 44.6063V54.375H44.0625V44.6063C44.0606 44.0077 43.9657 43.4131 43.7812 42.8438Z" fill="#21A0DA" fill-opacity="0.4"/>
<path d="M15.9375 43.125L16.2188 42.8438C16.0343 43.4131 15.9394 44.0077 15.9375 44.6063V46.875H2.8125V36.1688C2.81417 34.9352 3.2204 33.7363 3.96888 32.7558C4.71737 31.7753 5.7668 31.0674 6.95625 30.7406L13.125 29.0625L15 32.8125L14.0625 41.25L15.9375 43.125Z" fill="#21A0DA" fill-opacity="0.4"/>
<path d="M30 29.0625C29.5027 29.0625 29.0258 28.865 28.6742 28.5133C28.3225 28.1617 28.125 27.6848 28.125 27.1875H26.25C26.25 28.1821 26.6451 29.1359 27.3484 29.8391C28.0516 30.5424 29.0054 30.9375 30 30.9375C30.9946 30.9375 31.9484 30.5424 32.6516 29.8391C33.3549 29.1359 33.75 28.1821 33.75 27.1875H31.875C31.875 27.6848 31.6775 28.1617 31.3258 28.5133C30.9742 28.865 30.4973 29.0625 30 29.0625Z" fill="#21A0DA"/>
<path d="M19.6875 19.6875H17.8125C17.8125 20.1848 17.615 20.6617 17.2633 21.0133C16.9117 21.365 16.4348 21.5625 15.9375 21.5625C15.4402 21.5625 14.9633 21.365 14.6117 21.0133C14.26 20.6617 14.0625 20.1848 14.0625 19.6875H12.1875C12.1875 20.6821 12.5826 21.6359 13.2858 22.3391C13.9891 23.0424 14.9429 23.4375 15.9375 23.4375C16.9321 23.4375 17.8859 23.0424 18.5891 22.3391C19.2924 21.6359 19.6875 20.6821 19.6875 19.6875Z" fill="#21A0DA"/>
<path d="M44.0625 21.5625C43.5652 21.5625 43.0883 21.365 42.7367 21.0133C42.385 20.6617 42.1875 20.1848 42.1875 19.6875H40.3125C40.3125 20.6821 40.7076 21.6359 41.4109 22.3391C42.1141 23.0424 43.0679 23.4375 44.0625 23.4375C45.0571 23.4375 46.0109 23.0424 46.7141 22.3391C47.4174 21.6359 47.8125 20.6821 47.8125 19.6875H45.9375C45.9375 20.1848 45.74 20.6617 45.3883 21.0133C45.0367 21.365 44.5598 21.5625 44.0625 21.5625Z" fill="#21A0DA"/>
<path d="M53.2903 29.8359L47.8125 28.3462V26.2968C49.2184 25.5993 50.4019 24.5235 51.23 23.1903C52.058 21.8571 52.4979 20.3194 52.5 18.75V17.8125C52.7486 17.8125 52.9871 17.7137 53.1629 17.5379C53.3387 17.3621 53.4375 17.1236 53.4375 16.875V14.0625C53.4365 11.6292 52.489 9.29173 50.7953 7.54464C49.1016 5.79756 46.7947 4.7779 44.3626 4.70141C41.9306 4.62492 39.5641 5.4976 37.764 7.13481C35.9639 8.77201 34.8714 11.0453 34.7175 13.4737C33.288 12.6316 31.6591 12.1875 30 12.1875C28.3409 12.1875 26.712 12.6316 25.2825 13.4737C25.1286 11.0453 24.0361 8.77201 22.236 7.13481C20.4359 5.4976 18.0694 4.62492 15.6374 4.70141C13.2053 4.7779 10.8984 5.79756 9.20469 7.54464C7.51101 9.29173 6.56346 11.6292 6.5625 14.0625V16.875C6.5625 17.1236 6.66127 17.3621 6.83709 17.5379C7.0129 17.7137 7.25136 17.8125 7.5 17.8125V18.75C7.49841 19.859 7.71581 20.9574 8.13973 21.9822C8.56365 23.007 9.18574 23.938 9.97031 24.7218C10.6198 25.3645 11.3684 25.8985 12.1875 26.3034V28.3462L6.70687 29.8368C5.32105 30.2207 4.09878 31.0473 3.22642 32.1904C2.35406 33.3336 1.87947 34.7307 1.875 36.1687V46.875C1.875 47.1236 1.97377 47.3621 2.14959 47.5379C2.3254 47.7137 2.56386 47.8125 2.8125 47.8125H15V54.375C15 54.6236 15.0988 54.8621 15.2746 55.0379C15.4504 55.2137 15.6889 55.3125 15.9375 55.3125H44.0625C44.3111 55.3125 44.5496 55.2137 44.7254 55.0379C44.9012 54.8621 45 54.6236 45 54.375V47.8125H57.1875C57.4361 47.8125 57.6746 47.7137 57.8504 47.5379C58.0262 47.3621 58.125 47.1236 58.125 46.875V36.1687C58.1204 34.7302 57.6455 33.3327 56.7726 32.1893C55.8997 31.0459 54.6767 30.2195 53.2903 29.8359ZM44.9559 40.9059L44.2613 41.6006C43.9887 41.082 43.6486 40.6019 43.2497 40.1728L43.9688 33.75H44.1656L44.9559 40.9059ZM30.8934 48.4059L30 49.2993L29.1066 48.4059L29.9062 41.25H30.1031L30.8934 48.4059ZM21.2897 25.2572C21.3773 25.2894 21.4693 25.308 21.5625 25.3125V26.25C21.5641 27.1803 21.7206 28.1039 22.0256 28.9828L19.6875 28.3462V26.2968C20.2594 26.0124 20.7969 25.6636 21.2897 25.2572ZM44.4206 31.875H43.7044L42.7669 30H45.3581L44.4206 31.875ZM38.4375 26.25V25.3125C38.5249 25.3079 38.6111 25.2905 38.6934 25.2609C39.1918 25.6687 39.735 26.0184 40.3125 26.3034V28.3462L37.9744 28.9828C38.2794 28.1039 38.4359 27.1803 38.4375 26.25ZM36.5625 26.25C36.5625 27.9904 35.8711 29.6596 34.6404 30.8904C33.4097 32.1211 31.7405 32.8125 30 32.8125C28.2595 32.8125 26.5903 32.1211 25.3596 30.8904C24.1289 29.6596 23.4375 27.9904 23.4375 26.25V25.3125H25.9566C27.0649 25.3155 28.1628 25.0986 29.1868 24.6744C30.2107 24.2502 31.1404 23.6271 31.9219 22.8412L32.5781 22.185C33.4694 23.647 34.901 24.6989 36.5625 25.1128V26.25ZM16.2956 31.875H15.5794L14.6419 30H17.2331L16.2956 31.875ZM15.8438 33.75H16.0406L16.7559 40.1831C16.358 40.6096 16.0182 41.0869 15.7453 41.6025L15.0487 40.9059L15.8438 33.75ZM18.4922 38.8331L17.8416 32.985L19.2478 30.1725L23.2237 31.2553C24.0183 32.329 25.0552 33.1998 26.25 33.7968V35.9062L19.8319 38.2715C19.3642 38.4081 18.9133 38.5964 18.4875 38.8331H18.4922ZM30.3581 39.375H29.6419L28.7044 37.5H31.2956L30.3581 39.375ZM31.875 35.625H28.125V34.47C29.3582 34.76 30.6418 34.76 31.875 34.47V35.625ZM33.75 33.7968C34.9463 33.1991 35.9842 32.3269 36.7791 31.2515L40.755 30.1687L42.1613 32.9812L41.5125 38.819C41.1092 38.5978 40.6825 38.422 40.2403 38.295L33.75 35.9062V33.7968ZM45.9375 28.125H42.1875V26.9709C43.4208 27.2603 44.7042 27.2603 45.9375 26.9709V28.125ZM44.0625 25.3125C43.2006 25.3138 42.347 25.1452 41.5503 24.8162C40.7537 24.4872 40.0298 24.0044 39.42 23.3953C39.4041 23.3793 39.3909 23.3615 39.375 23.3456V21.5625C39.3751 20.2713 39.1066 18.9943 38.5866 17.8125H40.0219C41.1291 17.8156 42.226 17.599 43.249 17.1753C44.272 16.7516 45.2008 16.1291 45.9816 15.344L46.6378 14.6878C47.5305 16.149 48.9631 17.1995 50.625 17.6118V18.75C50.623 20.4898 49.931 22.1579 48.7007 23.3882C47.4704 24.6184 45.8024 25.3105 44.0625 25.3125ZM36.5625 14.0625C36.5625 12.0733 37.3527 10.1657 38.7592 8.75917C40.1657 7.35264 42.0734 6.56247 44.0625 6.56247C46.0516 6.56247 47.9593 7.35264 49.3658 8.75917C50.7723 10.1657 51.5625 12.0733 51.5625 14.0625V15.8906C50.8111 15.7855 50.0968 15.4985 49.4815 15.0546C48.8662 14.6107 48.3686 14.0233 48.0319 13.3434L47.7141 12.7059C47.6476 12.5733 47.5506 12.4583 47.431 12.3705C47.3115 12.2827 47.1728 12.2245 47.0264 12.2007C46.8799 12.1769 46.7299 12.1882 46.5887 12.2336C46.4475 12.2791 46.3191 12.3574 46.2141 12.4622L44.6578 14.0184C44.0503 14.6289 43.3278 15.1129 42.5321 15.4423C41.7363 15.7717 40.8831 15.94 40.0219 15.9375H37.4822C37.2023 15.5623 36.8949 15.2085 36.5625 14.879V14.0625ZM37.5 21.5625V23.3915C36.7491 23.2866 36.0351 22.9998 35.4201 22.5563C34.8052 22.1127 34.3078 21.5257 33.9712 20.8462L33.6516 20.2059C33.5851 20.0733 33.4881 19.9583 33.3685 19.8705C33.249 19.7827 33.1103 19.7245 32.9639 19.7007C32.8174 19.6769 32.6674 19.6882 32.5262 19.7336C32.385 19.7791 32.2566 19.8574 32.1516 19.9622L30.5963 21.5156C29.9884 22.1268 29.2653 22.6113 28.4689 22.9412C27.6725 23.2711 26.8186 23.4398 25.9566 23.4375H22.5V21.5625C22.5 19.5733 23.2902 17.6657 24.6967 16.2592C26.1032 14.8526 28.0109 14.0625 30 14.0625C31.9891 14.0625 33.8968 14.8526 35.3033 16.2592C36.7098 17.6657 37.5 19.5733 37.5 21.5625ZM8.4375 14.0625C8.4375 12.0733 9.22768 10.1657 10.6342 8.75917C12.0407 7.35264 13.9484 6.56247 15.9375 6.56247C17.9266 6.56247 19.8343 7.35264 21.2408 8.75917C22.6473 10.1657 23.4375 12.0733 23.4375 14.0625V14.879C23.171 15.1425 22.9206 15.4218 22.6875 15.7153C22.0882 15.5285 21.533 15.2219 21.0557 14.8142C20.5784 14.4065 20.1888 13.9061 19.9106 13.3434L19.5928 12.7059C19.5263 12.5733 19.4293 12.4583 19.3098 12.3705C19.1902 12.2827 19.0515 12.2245 18.9051 12.2007C18.7587 12.1769 18.6087 12.1882 18.4675 12.2336C18.3263 12.2791 18.1979 12.3574 18.0928 12.4622L16.5366 14.0184C15.9287 14.6294 15.2055 15.1136 14.4091 15.443C13.6126 15.7724 12.7587 15.9405 11.8969 15.9375H8.4375V14.0625ZM9.375 18.75V17.8125H11.8969C13.0041 17.8156 14.101 17.599 15.124 17.1753C16.147 16.7516 17.0758 16.1291 17.8566 15.344L18.5128 14.6878C19.2508 15.8781 20.3485 16.8027 21.6469 17.3278C20.9759 18.6386 20.6257 20.0899 20.625 21.5625V23.3287C19.7155 24.2642 18.5474 24.9068 17.2704 25.1743C15.9934 25.4418 14.6656 25.3219 13.4572 24.8301C12.2487 24.3382 11.2146 23.4968 10.4873 22.4136C9.76007 21.3304 9.37275 20.0547 9.375 18.75ZM15.9375 27.1875C16.5686 27.1863 17.1976 27.114 17.8125 26.9718V28.125H14.0625V26.9709C14.6775 27.1126 15.3064 27.1852 15.9375 27.1875ZM8.4375 45.9375V37.5H6.5625V45.9375H3.75V36.1687C3.75342 35.1413 4.09267 34.1433 4.71604 33.3266C5.33941 32.5099 6.2127 31.9195 7.20281 31.6453L12.63 30.1687L14.0363 32.9812L13.1287 41.1431C13.1133 41.2828 13.1295 41.4241 13.1761 41.5567C13.2226 41.6893 13.2984 41.8097 13.3978 41.909L15.0853 43.5965C15.0308 43.9304 15.0023 44.268 15 44.6062V45.9375H8.4375ZM43.125 53.4375H40.3125V45H38.4375V53.4375H21.5625V45H19.6875V53.4375H16.875V44.6062C16.8829 43.5659 17.2327 42.5571 17.8705 41.7352C18.5084 40.9134 19.3989 40.3242 20.4047 40.0584L26.7244 37.7315L28.1006 40.485L27.1931 48.6468C27.1777 48.7865 27.1939 48.9279 27.2404 49.0604C27.287 49.193 27.3628 49.3134 27.4622 49.4128L29.3372 51.2878C29.513 51.4635 29.7514 51.5623 30 51.5623C30.2486 51.5623 30.487 51.4635 30.6628 51.2878L32.5378 49.4128C32.6372 49.3134 32.713 49.193 32.7596 49.0604C32.8061 48.9279 32.8223 48.7865 32.8069 48.6468L31.8994 40.485L33.2766 37.7315L39.6694 40.0818C40.66 40.3559 41.5339 40.9463 42.1577 41.7631C42.7816 42.58 43.1213 43.5784 43.125 44.6062V53.4375ZM56.25 45.9375H53.4375V37.5H51.5625V45.9375H45V44.6062C44.998 44.2683 44.9698 43.931 44.9156 43.5975L46.6031 41.91C46.7025 41.8106 46.7783 41.6902 46.8249 41.5576C46.8714 41.4251 46.8876 41.2837 46.8722 41.144L45.9647 32.9822L47.3709 30.1697L52.7953 31.6453C53.7856 31.9194 54.6592 32.5098 55.2828 33.3264C55.9065 34.1431 56.2462 35.1412 56.25 36.1687V45.9375Z" fill="#21A0DA"/>
</svg>
