<svg width="24" height="24" viewBox="0 0 24 24" fill="none" xmlns="http://www.w3.org/2000/svg">
<g clip-path="url(#clip0)">
<path d="M23.4686 5.92901L23.4986 6.12501C23.2086 5.09601 22.4256 4.30201 21.4306 4.01301L21.4096 4.00801C19.5386 3.50001 12.0096 3.50001 12.0096 3.50001C12.0096 3.50001 4.49962 3.49001 2.60962 4.00801C1.59562 4.30201 0.811623 5.09601 0.526623 6.10401L0.521623 6.12501C-0.177377 9.77601 -0.182377 14.163 0.552623 18.072L0.521623 17.874C0.811623 18.903 1.59462 19.697 2.58962 19.986L2.61062 19.991C4.47962 20.5 12.0106 20.5 12.0106 20.5C12.0106 20.5 19.5196 20.5 21.4106 19.991C22.4256 19.697 23.2096 18.903 23.4946 17.895L23.4996 17.874C23.8176 16.176 23.9996 14.222 23.9996 12.226C23.9996 12.153 23.9996 12.079 23.9986 12.005C23.9996 11.937 23.9996 11.856 23.9996 11.775C23.9996 9.77801 23.8176 7.82401 23.4686 5.92901ZM9.60762 15.651V8.35801L15.8736 12.01L9.60762 15.651Z" fill="#21A0DA"/>
</g>
<defs>
<clipPath id="clip0">
<rect width="24" height="24" fill="white"/>
</clipPath>
</defs>
</svg>
